<svg xmlns="http://www.w3.org/2000/svg" width="1040" height="560" viewBox="0 0 1040 560">
<rect width="100%" height="100%" fill="#ffffff"/>
<text x="520.0" y="32.0" text-anchor="middle" font-family="Arial, sans-serif" font-size="21" font-weight="700" fill="#1f2937">Energy Quantization Sweep: 16 to 256 Bits</text>
<line x1="78" y1="488" x2="1004" y2="488" stroke="#2e3440" stroke-width="1.5"/>
<line x1="78" y1="58" x2="78" y2="488" stroke="#2e3440" stroke-width="1.5"/>
<line x1="78" y1="461.1" x2="1004" y2="461.1" stroke="#e3e8f0" stroke-width="1"/>
<text x="66.0" y="465.1" text-anchor="end" font-family="Arial, sans-serif" font-size="12" font-weight="400" fill="#1f2937">0</text>
<line x1="78" y1="407.4" x2="1004" y2="407.4" stroke="#e3e8f0" stroke-width="1"/>
<text x="66.0" y="411.4" text-anchor="end" font-family="Arial, sans-serif" font-size="12" font-weight="400" fill="#1f2937">1</text>
<line x1="78" y1="353.6" x2="1004" y2="353.6" stroke="#e3e8f0" stroke-width="1"/>
<text x="66.0" y="357.6" text-anchor="end" font-family="Arial, sans-serif" font-size="12" font-weight="400" fill="#1f2937">2</text>
<line x1="78" y1="299.9" x2="1004" y2="299.9" stroke="#e3e8f0" stroke-width="1"/>
<text x="66.0" y="303.9" text-anchor="end" font-family="Arial, sans-serif" font-size="12" font-weight="400" fill="#1f2937">3</text>
<line x1="78" y1="246.1" x2="1004" y2="246.1" stroke="#e3e8f0" stroke-width="1"/>
<text x="66.0" y="250.1" text-anchor="end" font-family="Arial, sans-serif" font-size="12" font-weight="400" fill="#1f2937">4</text>
<line x1="78" y1="192.4" x2="1004" y2="192.4" stroke="#e3e8f0" stroke-width="1"/>
<text x="66.0" y="196.4" text-anchor="end" font-family="Arial, sans-serif" font-size="12" font-weight="400" fill="#1f2937">5</text>
<line x1="78" y1="138.6" x2="1004" y2="138.6" stroke="#e3e8f0" stroke-width="1"/>
<text x="66.0" y="142.6" text-anchor="end" font-family="Arial, sans-serif" font-size="12" font-weight="400" fill="#1f2937">6</text>
<line x1="78" y1="84.9" x2="1004" y2="84.9" stroke="#e3e8f0" stroke-width="1"/>
<text x="66.0" y="88.9" text-anchor="end" font-family="Arial, sans-serif" font-size="12" font-weight="400" fill="#1f2937">7</text>
<line x1="78.0" y1="488" x2="78.0" y2="494" stroke="#2e3440"/>
<text x="78.0" y="512.0" text-anchor="middle" font-family="Arial, sans-serif" font-size="12" font-weight="400" fill="#1f2937">16</text>
<line x1="139.7" y1="488" x2="139.7" y2="494" stroke="#2e3440"/>
<text x="139.7" y="512.0" text-anchor="middle" font-family="Arial, sans-serif" font-size="12" font-weight="400" fill="#1f2937">32</text>
<line x1="201.5" y1="488" x2="201.5" y2="494" stroke="#2e3440"/>
<text x="201.5" y="512.0" text-anchor="middle" font-family="Arial, sans-serif" font-size="12" font-weight="400" fill="#1f2937">48</text>
<line x1="263.2" y1="488" x2="263.2" y2="494" stroke="#2e3440"/>
<text x="263.2" y="512.0" text-anchor="middle" font-family="Arial, sans-serif" font-size="12" font-weight="400" fill="#1f2937">64</text>
<line x1="386.7" y1="488" x2="386.7" y2="494" stroke="#2e3440"/>
<text x="386.7" y="512.0" text-anchor="middle" font-family="Arial, sans-serif" font-size="12" font-weight="400" fill="#1f2937">96</text>
<line x1="510.1" y1="488" x2="510.1" y2="494" stroke="#2e3440"/>
<text x="510.1" y="512.0" text-anchor="middle" font-family="Arial, sans-serif" font-size="12" font-weight="400" fill="#1f2937">128</text>
<line x1="633.6" y1="488" x2="633.6" y2="494" stroke="#2e3440"/>
<text x="633.6" y="512.0" text-anchor="middle" font-family="Arial, sans-serif" font-size="12" font-weight="400" fill="#1f2937">160</text>
<line x1="757.1" y1="488" x2="757.1" y2="494" stroke="#2e3440"/>
<text x="757.1" y="512.0" text-anchor="middle" font-family="Arial, sans-serif" font-size="12" font-weight="400" fill="#1f2937">192</text>
<line x1="880.5" y1="488" x2="880.5" y2="494" stroke="#2e3440"/>
<text x="880.5" y="512.0" text-anchor="middle" font-family="Arial, sans-serif" font-size="12" font-weight="400" fill="#1f2937">224</text>
<line x1="1004.0" y1="488" x2="1004.0" y2="494" stroke="#2e3440"/>
<text x="1004.0" y="512.0" text-anchor="middle" font-family="Arial, sans-serif" font-size="12" font-weight="400" fill="#1f2937">256</text>
<line x1="78" y1="299.9" x2="1004" y2="299.9" stroke="#111827" stroke-width="2" stroke-dasharray="7 5"/>
<text x="86.0" y="289.9" text-anchor="start" font-family="Arial, sans-serif" font-size="12" font-weight="700" fill="#1f2937">reference bin 3</text>
<rect x="255.5" y="58" width="748.5" height="430" fill="#e9f7ef" opacity="0.55"/>
<line x1="255.5" y1="58" x2="255.5" y2="488" stroke="#2ca02c" stroke-width="2"/>
<text x="263.5" y="76.0" text-anchor="start" font-family="Arial, sans-serif" font-size="12" font-weight="700" fill="#1f7a3a">exact at >= 62 bits</text>
<circle cx="78.0" cy="353.6" r="5.0" fill="#d62728" stroke="#ffffff" stroke-width="1"/>
<line x1="78.0" y1="353.6" x2="81.9" y2="353.6" stroke="#9aa4b2" stroke-width="1"/>
<circle cx="81.9" cy="353.6" r="3.3" fill="#d62728" stroke="#ffffff" stroke-width="1"/>
<line x1="81.9" y1="353.6" x2="85.7" y2="246.1" stroke="#9aa4b2" stroke-width="1"/>
<circle cx="85.7" cy="246.1" r="3.3" fill="#d62728" stroke="#ffffff" stroke-width="1"/>
<line x1="85.7" y1="246.1" x2="89.6" y2="246.1" stroke="#9aa4b2" stroke-width="1"/>
<circle cx="89.6" cy="246.1" r="3.3" fill="#d62728" stroke="#ffffff" stroke-width="1"/>
<line x1="89.6" y1="246.1" x2="93.4" y2="192.4" stroke="#9aa4b2" stroke-width="1"/>
<circle cx="93.4" cy="192.4" r="3.3" fill="#d62728" stroke="#ffffff" stroke-width="1"/>
<line x1="93.4" y1="192.4" x2="97.3" y2="353.6" stroke="#9aa4b2" stroke-width="1"/>
<circle cx="97.3" cy="353.6" r="3.3" fill="#d62728" stroke="#ffffff" stroke-width="1"/>
<line x1="97.3" y1="353.6" x2="101.2" y2="138.6" stroke="#9aa4b2" stroke-width="1"/>
<circle cx="101.2" cy="138.6" r="3.3" fill="#d62728" stroke="#ffffff" stroke-width="1"/>
<line x1="101.2" y1="138.6" x2="105.0" y2="407.4" stroke="#9aa4b2" stroke-width="1"/>
<circle cx="105.0" cy="407.4" r="3.3" fill="#d62728" stroke="#ffffff" stroke-width="1"/>
<line x1="105.0" y1="407.4" x2="108.9" y2="84.9" stroke="#9aa4b2" stroke-width="1"/>
<circle cx="108.9" cy="84.9" r="5.0" fill="#d62728" stroke="#ffffff" stroke-width="1"/>
<line x1="108.9" y1="84.9" x2="112.7" y2="84.9" stroke="#9aa4b2" stroke-width="1"/>
<circle cx="112.7" cy="84.9" r="3.3" fill="#d62728" stroke="#ffffff" stroke-width="1"/>
<line x1="112.7" y1="84.9" x2="116.6" y2="84.9" stroke="#9aa4b2" stroke-width="1"/>
<circle cx="116.6" cy="84.9" r="3.3" fill="#d62728" stroke="#ffffff" stroke-width="1"/>
<line x1="116.6" y1="84.9" x2="120.4" y2="461.1" stroke="#9aa4b2" stroke-width="1"/>
<circle cx="120.4" cy="461.1" r="3.3" fill="#d62728" stroke="#ffffff" stroke-width="1"/>
<line x1="120.4" y1="461.1" x2="124.3" y2="84.9" stroke="#9aa4b2" stroke-width="1"/>
<circle cx="124.3" cy="84.9" r="3.3" fill="#d62728" stroke="#ffffff" stroke-width="1"/>
<line x1="124.3" y1="84.9" x2="128.2" y2="407.4" stroke="#9aa4b2" stroke-width="1"/>
<circle cx="128.2" cy="407.4" r="3.3" fill="#d62728" stroke="#ffffff" stroke-width="1"/>
<line x1="128.2" y1="407.4" x2="132.0" y2="299.9" stroke="#9aa4b2" stroke-width="1"/>
<circle cx="132.0" cy="299.9" r="3.3" fill="#2ca02c" stroke="#ffffff" stroke-width="1"/>
<line x1="132.0" y1="299.9" x2="135.9" y2="84.9" stroke="#9aa4b2" stroke-width="1"/>
<circle cx="135.9" cy="84.9" r="3.3" fill="#d62728" stroke="#ffffff" stroke-width="1"/>
<line x1="135.9" y1="84.9" x2="139.7" y2="461.1" stroke="#9aa4b2" stroke-width="1"/>
<circle cx="139.7" cy="461.1" r="5.0" fill="#d62728" stroke="#ffffff" stroke-width="1"/>
<line x1="139.7" y1="461.1" x2="143.6" y2="461.1" stroke="#9aa4b2" stroke-width="1"/>
<circle cx="143.6" cy="461.1" r="3.3" fill="#d62728" stroke="#ffffff" stroke-width="1"/>
<line x1="143.6" y1="461.1" x2="147.4" y2="461.1" stroke="#9aa4b2" stroke-width="1"/>
<circle cx="147.4" cy="461.1" r="3.3" fill="#d62728" stroke="#ffffff" stroke-width="1"/>
<line x1="147.4" y1="461.1" x2="151.3" y2="299.9" stroke="#9aa4b2" stroke-width="1"/>
<circle cx="151.3" cy="299.9" r="3.3" fill="#2ca02c" stroke="#ffffff" stroke-width="1"/>
<line x1="151.3" y1="299.9" x2="155.2" y2="299.9" stroke="#9aa4b2" stroke-width="1"/>
<circle cx="155.2" cy="299.9" r="3.3" fill="#2ca02c" stroke="#ffffff" stroke-width="1"/>
<line x1="155.2" y1="299.9" x2="159.0" y2="299.9" stroke="#9aa4b2" stroke-width="1"/>
<circle cx="159.0" cy="299.9" r="3.3" fill="#2ca02c" stroke="#ffffff" stroke-width="1"/>
<line x1="159.0" y1="299.9" x2="162.9" y2="84.9" stroke="#9aa4b2" stroke-width="1"/>
<circle cx="162.9" cy="84.9" r="3.3" fill="#d62728" stroke="#ffffff" stroke-width="1"/>
<line x1="162.9" y1="84.9" x2="166.7" y2="138.6" stroke="#9aa4b2" stroke-width="1"/>
<circle cx="166.7" cy="138.6" r="3.3" fill="#d62728" stroke="#ffffff" stroke-width="1"/>
<line x1="166.7" y1="138.6" x2="170.6" y2="138.6" stroke="#9aa4b2" stroke-width="1"/>
<circle cx="170.6" cy="138.6" r="5.0" fill="#d62728" stroke="#ffffff" stroke-width="1"/>
<line x1="170.6" y1="138.6" x2="174.5" y2="138.6" stroke="#9aa4b2" stroke-width="1"/>
<circle cx="174.5" cy="138.6" r="3.3" fill="#d62728" stroke="#ffffff" stroke-width="1"/>
<line x1="174.5" y1="138.6" x2="178.3" y2="138.6" stroke="#9aa4b2" stroke-width="1"/>
<circle cx="178.3" cy="138.6" r="3.3" fill="#d62728" stroke="#ffffff" stroke-width="1"/>
<line x1="178.3" y1="138.6" x2="182.2" y2="246.1" stroke="#9aa4b2" stroke-width="1"/>
<circle cx="182.2" cy="246.1" r="3.3" fill="#d62728" stroke="#ffffff" stroke-width="1"/>
<line x1="182.2" y1="246.1" x2="186.0" y2="84.9" stroke="#9aa4b2" stroke-width="1"/>
<circle cx="186.0" cy="84.9" r="3.3" fill="#d62728" stroke="#ffffff" stroke-width="1"/>
<line x1="186.0" y1="84.9" x2="189.9" y2="138.6" stroke="#9aa4b2" stroke-width="1"/>
<circle cx="189.9" cy="138.6" r="3.3" fill="#d62728" stroke="#ffffff" stroke-width="1"/>
<line x1="189.9" y1="138.6" x2="193.8" y2="138.6" stroke="#9aa4b2" stroke-width="1"/>
<circle cx="193.8" cy="138.6" r="3.3" fill="#d62728" stroke="#ffffff" stroke-width="1"/>
<line x1="193.8" y1="138.6" x2="197.6" y2="138.6" stroke="#9aa4b2" stroke-width="1"/>
<circle cx="197.6" cy="138.6" r="3.3" fill="#d62728" stroke="#ffffff" stroke-width="1"/>
<line x1="197.6" y1="138.6" x2="201.5" y2="407.4" stroke="#9aa4b2" stroke-width="1"/>
<circle cx="201.5" cy="407.4" r="5.0" fill="#d62728" stroke="#ffffff" stroke-width="1"/>
<line x1="201.5" y1="407.4" x2="205.3" y2="407.4" stroke="#9aa4b2" stroke-width="1"/>
<circle cx="205.3" cy="407.4" r="3.3" fill="#d62728" stroke="#ffffff" stroke-width="1"/>
<line x1="205.3" y1="407.4" x2="209.2" y2="246.1" stroke="#9aa4b2" stroke-width="1"/>
<circle cx="209.2" cy="246.1" r="3.3" fill="#d62728" stroke="#ffffff" stroke-width="1"/>
<line x1="209.2" y1="246.1" x2="213.0" y2="246.1" stroke="#9aa4b2" stroke-width="1"/>
<circle cx="213.0" cy="246.1" r="3.3" fill="#d62728" stroke="#ffffff" stroke-width="1"/>
<line x1="213.0" y1="246.1" x2="216.9" y2="246.1" stroke="#9aa4b2" stroke-width="1"/>
<circle cx="216.9" cy="246.1" r="3.3" fill="#d62728" stroke="#ffffff" stroke-width="1"/>
<line x1="216.9" y1="246.1" x2="220.8" y2="246.1" stroke="#9aa4b2" stroke-width="1"/>
<circle cx="220.8" cy="246.1" r="3.3" fill="#d62728" stroke="#ffffff" stroke-width="1"/>
<line x1="220.8" y1="246.1" x2="224.6" y2="407.4" stroke="#9aa4b2" stroke-width="1"/>
<circle cx="224.6" cy="407.4" r="3.3" fill="#d62728" stroke="#ffffff" stroke-width="1"/>
<line x1="224.6" y1="407.4" x2="228.5" y2="407.4" stroke="#9aa4b2" stroke-width="1"/>
<circle cx="228.5" cy="407.4" r="3.3" fill="#d62728" stroke="#ffffff" stroke-width="1"/>
<line x1="228.5" y1="407.4" x2="232.3" y2="407.4" stroke="#9aa4b2" stroke-width="1"/>
<circle cx="232.3" cy="407.4" r="5.0" fill="#d62728" stroke="#ffffff" stroke-width="1"/>
<line x1="232.3" y1="407.4" x2="236.2" y2="138.6" stroke="#9aa4b2" stroke-width="1"/>
<circle cx="236.2" cy="138.6" r="3.3" fill="#d62728" stroke="#ffffff" stroke-width="1"/>
<line x1="236.2" y1="138.6" x2="240.0" y2="353.6" stroke="#9aa4b2" stroke-width="1"/>
<circle cx="240.0" cy="353.6" r="3.3" fill="#d62728" stroke="#ffffff" stroke-width="1"/>
<line x1="240.0" y1="353.6" x2="243.9" y2="353.6" stroke="#9aa4b2" stroke-width="1"/>
<circle cx="243.9" cy="353.6" r="3.3" fill="#d62728" stroke="#ffffff" stroke-width="1"/>
<line x1="243.9" y1="353.6" x2="247.8" y2="353.6" stroke="#9aa4b2" stroke-width="1"/>
<circle cx="247.8" cy="353.6" r="3.3" fill="#d62728" stroke="#ffffff" stroke-width="1"/>
<line x1="247.8" y1="353.6" x2="251.6" y2="353.6" stroke="#9aa4b2" stroke-width="1"/>
<circle cx="251.6" cy="353.6" r="3.3" fill="#d62728" stroke="#ffffff" stroke-width="1"/>
<line x1="251.6" y1="353.6" x2="255.5" y2="299.9" stroke="#9aa4b2" stroke-width="1"/>
<circle cx="255.5" cy="299.9" r="3.3" fill="#2ca02c" stroke="#ffffff" stroke-width="1"/>
<line x1="255.5" y1="299.9" x2="259.3" y2="299.9" stroke="#9aa4b2" stroke-width="1"/>
<circle cx="259.3" cy="299.9" r="3.3" fill="#2ca02c" stroke="#ffffff" stroke-width="1"/>
<line x1="259.3" y1="299.9" x2="263.2" y2="299.9" stroke="#9aa4b2" stroke-width="1"/>
<circle cx="263.2" cy="299.9" r="5.0" fill="#2ca02c" stroke="#ffffff" stroke-width="1"/>
<line x1="263.2" y1="299.9" x2="267.1" y2="299.9" stroke="#9aa4b2" stroke-width="1"/>
<circle cx="267.1" cy="299.9" r="3.3" fill="#2ca02c" stroke="#ffffff" stroke-width="1"/>
<line x1="267.1" y1="299.9" x2="270.9" y2="299.9" stroke="#9aa4b2" stroke-width="1"/>
<circle cx="270.9" cy="299.9" r="3.3" fill="#2ca02c" stroke="#ffffff" stroke-width="1"/>
<line x1="270.9" y1="299.9" x2="274.8" y2="299.9" stroke="#9aa4b2" stroke-width="1"/>
<circle cx="274.8" cy="299.9" r="3.3" fill="#2ca02c" stroke="#ffffff" stroke-width="1"/>
<line x1="274.8" y1="299.9" x2="278.6" y2="299.9" stroke="#9aa4b2" stroke-width="1"/>
<circle cx="278.6" cy="299.9" r="3.3" fill="#2ca02c" stroke="#ffffff" stroke-width="1"/>
<line x1="278.6" y1="299.9" x2="282.5" y2="299.9" stroke="#9aa4b2" stroke-width="1"/>
<circle cx="282.5" cy="299.9" r="3.3" fill="#2ca02c" stroke="#ffffff" stroke-width="1"/>
<line x1="282.5" y1="299.9" x2="286.4" y2="299.9" stroke="#9aa4b2" stroke-width="1"/>
<circle cx="286.4" cy="299.9" r="3.3" fill="#2ca02c" stroke="#ffffff" stroke-width="1"/>
<line x1="286.4" y1="299.9" x2="290.2" y2="299.9" stroke="#9aa4b2" stroke-width="1"/>
<circle cx="290.2" cy="299.9" r="3.3" fill="#2ca02c" stroke="#ffffff" stroke-width="1"/>
<line x1="290.2" y1="299.9" x2="294.1" y2="299.9" stroke="#9aa4b2" stroke-width="1"/>
<circle cx="294.1" cy="299.9" r="5.0" fill="#2ca02c" stroke="#ffffff" stroke-width="1"/>
<line x1="294.1" y1="299.9" x2="297.9" y2="299.9" stroke="#9aa4b2" stroke-width="1"/>
<circle cx="297.9" cy="299.9" r="3.3" fill="#2ca02c" stroke="#ffffff" stroke-width="1"/>
<line x1="297.9" y1="299.9" x2="301.8" y2="299.9" stroke="#9aa4b2" stroke-width="1"/>
<circle cx="301.8" cy="299.9" r="3.3" fill="#2ca02c" stroke="#ffffff" stroke-width="1"/>
<line x1="301.8" y1="299.9" x2="305.6" y2="299.9" stroke="#9aa4b2" stroke-width="1"/>
<circle cx="305.6" cy="299.9" r="3.3" fill="#2ca02c" stroke="#ffffff" stroke-width="1"/>
<line x1="305.6" y1="299.9" x2="309.5" y2="299.9" stroke="#9aa4b2" stroke-width="1"/>
<circle cx="309.5" cy="299.9" r="3.3" fill="#2ca02c" stroke="#ffffff" stroke-width="1"/>
<line x1="309.5" y1="299.9" x2="313.4" y2="299.9" stroke="#9aa4b2" stroke-width="1"/>
<circle cx="313.4" cy="299.9" r="3.3" fill="#2ca02c" stroke="#ffffff" stroke-width="1"/>
<line x1="313.4" y1="299.9" x2="317.2" y2="299.9" stroke="#9aa4b2" stroke-width="1"/>
<circle cx="317.2" cy="299.9" r="3.3" fill="#2ca02c" stroke="#ffffff" stroke-width="1"/>
<line x1="317.2" y1="299.9" x2="321.1" y2="299.9" stroke="#9aa4b2" stroke-width="1"/>
<circle cx="321.1" cy="299.9" r="3.3" fill="#2ca02c" stroke="#ffffff" stroke-width="1"/>
<line x1="321.1" y1="299.9" x2="324.9" y2="299.9" stroke="#9aa4b2" stroke-width="1"/>
<circle cx="324.9" cy="299.9" r="5.0" fill="#2ca02c" stroke="#ffffff" stroke-width="1"/>
<line x1="324.9" y1="299.9" x2="328.8" y2="299.9" stroke="#9aa4b2" stroke-width="1"/>
<circle cx="328.8" cy="299.9" r="3.3" fill="#2ca02c" stroke="#ffffff" stroke-width="1"/>
<line x1="328.8" y1="299.9" x2="332.7" y2="299.9" stroke="#9aa4b2" stroke-width="1"/>
<circle cx="332.7" cy="299.9" r="3.3" fill="#2ca02c" stroke="#ffffff" stroke-width="1"/>
<line x1="332.7" y1="299.9" x2="336.5" y2="299.9" stroke="#9aa4b2" stroke-width="1"/>
<circle cx="336.5" cy="299.9" r="3.3" fill="#2ca02c" stroke="#ffffff" stroke-width="1"/>
<line x1="336.5" y1="299.9" x2="340.4" y2="299.9" stroke="#9aa4b2" stroke-width="1"/>
<circle cx="340.4" cy="299.9" r="3.3" fill="#2ca02c" stroke="#ffffff" stroke-width="1"/>
<line x1="340.4" y1="299.9" x2="344.2" y2="299.9" stroke="#9aa4b2" stroke-width="1"/>
<circle cx="344.2" cy="299.9" r="3.3" fill="#2ca02c" stroke="#ffffff" stroke-width="1"/>
<line x1="344.2" y1="299.9" x2="348.1" y2="299.9" stroke="#9aa4b2" stroke-width="1"/>
<circle cx="348.1" cy="299.9" r="3.3" fill="#2ca02c" stroke="#ffffff" stroke-width="1"/>
<line x1="348.1" y1="299.9" x2="351.9" y2="299.9" stroke="#9aa4b2" stroke-width="1"/>
<circle cx="351.9" cy="299.9" r="3.3" fill="#2ca02c" stroke="#ffffff" stroke-width="1"/>
<line x1="351.9" y1="299.9" x2="355.8" y2="299.9" stroke="#9aa4b2" stroke-width="1"/>
<circle cx="355.8" cy="299.9" r="5.0" fill="#2ca02c" stroke="#ffffff" stroke-width="1"/>
<line x1="355.8" y1="299.9" x2="359.7" y2="299.9" stroke="#9aa4b2" stroke-width="1"/>
<circle cx="359.7" cy="299.9" r="3.3" fill="#2ca02c" stroke="#ffffff" stroke-width="1"/>
<line x1="359.7" y1="299.9" x2="363.5" y2="299.9" stroke="#9aa4b2" stroke-width="1"/>
<circle cx="363.5" cy="299.9" r="3.3" fill="#2ca02c" stroke="#ffffff" stroke-width="1"/>
<line x1="363.5" y1="299.9" x2="367.4" y2="299.9" stroke="#9aa4b2" stroke-width="1"/>
<circle cx="367.4" cy="299.9" r="3.3" fill="#2ca02c" stroke="#ffffff" stroke-width="1"/>
<line x1="367.4" y1="299.9" x2="371.2" y2="299.9" stroke="#9aa4b2" stroke-width="1"/>
<circle cx="371.2" cy="299.9" r="3.3" fill="#2ca02c" stroke="#ffffff" stroke-width="1"/>
<line x1="371.2" y1="299.9" x2="375.1" y2="299.9" stroke="#9aa4b2" stroke-width="1"/>
<circle cx="375.1" cy="299.9" r="3.3" fill="#2ca02c" stroke="#ffffff" stroke-width="1"/>
<line x1="375.1" y1="299.9" x2="378.9" y2="299.9" stroke="#9aa4b2" stroke-width="1"/>
<circle cx="378.9" cy="299.9" r="3.3" fill="#2ca02c" stroke="#ffffff" stroke-width="1"/>
<line x1="378.9" y1="299.9" x2="382.8" y2="299.9" stroke="#9aa4b2" stroke-width="1"/>
<circle cx="382.8" cy="299.9" r="3.3" fill="#2ca02c" stroke="#ffffff" stroke-width="1"/>
<line x1="382.8" y1="299.9" x2="386.7" y2="299.9" stroke="#9aa4b2" stroke-width="1"/>
<circle cx="386.7" cy="299.9" r="5.0" fill="#2ca02c" stroke="#ffffff" stroke-width="1"/>
<line x1="386.7" y1="299.9" x2="390.5" y2="299.9" stroke="#9aa4b2" stroke-width="1"/>
<circle cx="390.5" cy="299.9" r="3.3" fill="#2ca02c" stroke="#ffffff" stroke-width="1"/>
<line x1="390.5" y1="299.9" x2="394.4" y2="299.9" stroke="#9aa4b2" stroke-width="1"/>
<circle cx="394.4" cy="299.9" r="3.3" fill="#2ca02c" stroke="#ffffff" stroke-width="1"/>
<line x1="394.4" y1="299.9" x2="398.2" y2="299.9" stroke="#9aa4b2" stroke-width="1"/>
<circle cx="398.2" cy="299.9" r="3.3" fill="#2ca02c" stroke="#ffffff" stroke-width="1"/>
<line x1="398.2" y1="299.9" x2="402.1" y2="299.9" stroke="#9aa4b2" stroke-width="1"/>
<circle cx="402.1" cy="299.9" r="3.3" fill="#2ca02c" stroke="#ffffff" stroke-width="1"/>
<line x1="402.1" y1="299.9" x2="406.0" y2="299.9" stroke="#9aa4b2" stroke-width="1"/>
<circle cx="406.0" cy="299.9" r="3.3" fill="#2ca02c" stroke="#ffffff" stroke-width="1"/>
<line x1="406.0" y1="299.9" x2="409.8" y2="299.9" stroke="#9aa4b2" stroke-width="1"/>
<circle cx="409.8" cy="299.9" r="3.3" fill="#2ca02c" stroke="#ffffff" stroke-width="1"/>
<line x1="409.8" y1="299.9" x2="413.7" y2="299.9" stroke="#9aa4b2" stroke-width="1"/>
<circle cx="413.7" cy="299.9" r="3.3" fill="#2ca02c" stroke="#ffffff" stroke-width="1"/>
<line x1="413.7" y1="299.9" x2="417.5" y2="299.9" stroke="#9aa4b2" stroke-width="1"/>
<circle cx="417.5" cy="299.9" r="5.0" fill="#2ca02c" stroke="#ffffff" stroke-width="1"/>
<line x1="417.5" y1="299.9" x2="421.4" y2="299.9" stroke="#9aa4b2" stroke-width="1"/>
<circle cx="421.4" cy="299.9" r="3.3" fill="#2ca02c" stroke="#ffffff" stroke-width="1"/>
<line x1="421.4" y1="299.9" x2="425.2" y2="299.9" stroke="#9aa4b2" stroke-width="1"/>
<circle cx="425.2" cy="299.9" r="3.3" fill="#2ca02c" stroke="#ffffff" stroke-width="1"/>
<line x1="425.2" y1="299.9" x2="429.1" y2="299.9" stroke="#9aa4b2" stroke-width="1"/>
<circle cx="429.1" cy="299.9" r="3.3" fill="#2ca02c" stroke="#ffffff" stroke-width="1"/>
<line x1="429.1" y1="299.9" x2="433.0" y2="299.9" stroke="#9aa4b2" stroke-width="1"/>
<circle cx="433.0" cy="299.9" r="3.3" fill="#2ca02c" stroke="#ffffff" stroke-width="1"/>
<line x1="433.0" y1="299.9" x2="436.8" y2="299.9" stroke="#9aa4b2" stroke-width="1"/>
<circle cx="436.8" cy="299.9" r="3.3" fill="#2ca02c" stroke="#ffffff" stroke-width="1"/>
<line x1="436.8" y1="299.9" x2="440.7" y2="299.9" stroke="#9aa4b2" stroke-width="1"/>
<circle cx="440.7" cy="299.9" r="3.3" fill="#2ca02c" stroke="#ffffff" stroke-width="1"/>
<line x1="440.7" y1="299.9" x2="444.5" y2="299.9" stroke="#9aa4b2" stroke-width="1"/>
<circle cx="444.5" cy="299.9" r="3.3" fill="#2ca02c" stroke="#ffffff" stroke-width="1"/>
<line x1="444.5" y1="299.9" x2="448.4" y2="299.9" stroke="#9aa4b2" stroke-width="1"/>
<circle cx="448.4" cy="299.9" r="5.0" fill="#2ca02c" stroke="#ffffff" stroke-width="1"/>
<line x1="448.4" y1="299.9" x2="452.3" y2="299.9" stroke="#9aa4b2" stroke-width="1"/>
<circle cx="452.3" cy="299.9" r="3.3" fill="#2ca02c" stroke="#ffffff" stroke-width="1"/>
<line x1="452.3" y1="299.9" x2="456.1" y2="299.9" stroke="#9aa4b2" stroke-width="1"/>
<circle cx="456.1" cy="299.9" r="3.3" fill="#2ca02c" stroke="#ffffff" stroke-width="1"/>
<line x1="456.1" y1="299.9" x2="460.0" y2="299.9" stroke="#9aa4b2" stroke-width="1"/>
<circle cx="460.0" cy="299.9" r="3.3" fill="#2ca02c" stroke="#ffffff" stroke-width="1"/>
<line x1="460.0" y1="299.9" x2="463.8" y2="299.9" stroke="#9aa4b2" stroke-width="1"/>
<circle cx="463.8" cy="299.9" r="3.3" fill="#2ca02c" stroke="#ffffff" stroke-width="1"/>
<line x1="463.8" y1="299.9" x2="467.7" y2="299.9" stroke="#9aa4b2" stroke-width="1"/>
<circle cx="467.7" cy="299.9" r="3.3" fill="#2ca02c" stroke="#ffffff" stroke-width="1"/>
<line x1="467.7" y1="299.9" x2="471.6" y2="299.9" stroke="#9aa4b2" stroke-width="1"/>
<circle cx="471.6" cy="299.9" r="3.3" fill="#2ca02c" stroke="#ffffff" stroke-width="1"/>
<line x1="471.6" y1="299.9" x2="475.4" y2="299.9" stroke="#9aa4b2" stroke-width="1"/>
<circle cx="475.4" cy="299.9" r="3.3" fill="#2ca02c" stroke="#ffffff" stroke-width="1"/>
<line x1="475.4" y1="299.9" x2="479.3" y2="299.9" stroke="#9aa4b2" stroke-width="1"/>
<circle cx="479.3" cy="299.9" r="5.0" fill="#2ca02c" stroke="#ffffff" stroke-width="1"/>
<line x1="479.3" y1="299.9" x2="483.1" y2="299.9" stroke="#9aa4b2" stroke-width="1"/>
<circle cx="483.1" cy="299.9" r="3.3" fill="#2ca02c" stroke="#ffffff" stroke-width="1"/>
<line x1="483.1" y1="299.9" x2="487.0" y2="299.9" stroke="#9aa4b2" stroke-width="1"/>
<circle cx="487.0" cy="299.9" r="3.3" fill="#2ca02c" stroke="#ffffff" stroke-width="1"/>
<line x1="487.0" y1="299.9" x2="490.8" y2="299.9" stroke="#9aa4b2" stroke-width="1"/>
<circle cx="490.8" cy="299.9" r="3.3" fill="#2ca02c" stroke="#ffffff" stroke-width="1"/>
<line x1="490.8" y1="299.9" x2="494.7" y2="299.9" stroke="#9aa4b2" stroke-width="1"/>
<circle cx="494.7" cy="299.9" r="3.3" fill="#2ca02c" stroke="#ffffff" stroke-width="1"/>
<line x1="494.7" y1="299.9" x2="498.6" y2="299.9" stroke="#9aa4b2" stroke-width="1"/>
<circle cx="498.6" cy="299.9" r="3.3" fill="#2ca02c" stroke="#ffffff" stroke-width="1"/>
<line x1="498.6" y1="299.9" x2="502.4" y2="299.9" stroke="#9aa4b2" stroke-width="1"/>
<circle cx="502.4" cy="299.9" r="3.3" fill="#2ca02c" stroke="#ffffff" stroke-width="1"/>
<line x1="502.4" y1="299.9" x2="506.3" y2="299.9" stroke="#9aa4b2" stroke-width="1"/>
<circle cx="506.3" cy="299.9" r="3.3" fill="#2ca02c" stroke="#ffffff" stroke-width="1"/>
<line x1="506.3" y1="299.9" x2="510.1" y2="299.9" stroke="#9aa4b2" stroke-width="1"/>
<circle cx="510.1" cy="299.9" r="5.0" fill="#2ca02c" stroke="#ffffff" stroke-width="1"/>
<line x1="510.1" y1="299.9" x2="514.0" y2="299.9" stroke="#9aa4b2" stroke-width="1"/>
<circle cx="514.0" cy="299.9" r="3.3" fill="#2ca02c" stroke="#ffffff" stroke-width="1"/>
<line x1="514.0" y1="299.9" x2="517.8" y2="299.9" stroke="#9aa4b2" stroke-width="1"/>
<circle cx="517.8" cy="299.9" r="3.3" fill="#2ca02c" stroke="#ffffff" stroke-width="1"/>
<line x1="517.8" y1="299.9" x2="521.7" y2="299.9" stroke="#9aa4b2" stroke-width="1"/>
<circle cx="521.7" cy="299.9" r="3.3" fill="#2ca02c" stroke="#ffffff" stroke-width="1"/>
<line x1="521.7" y1="299.9" x2="525.6" y2="299.9" stroke="#9aa4b2" stroke-width="1"/>
<circle cx="525.6" cy="299.9" r="3.3" fill="#2ca02c" stroke="#ffffff" stroke-width="1"/>
<line x1="525.6" y1="299.9" x2="529.4" y2="299.9" stroke="#9aa4b2" stroke-width="1"/>
<circle cx="529.4" cy="299.9" r="3.3" fill="#2ca02c" stroke="#ffffff" stroke-width="1"/>
<line x1="529.4" y1="299.9" x2="533.3" y2="299.9" stroke="#9aa4b2" stroke-width="1"/>
<circle cx="533.3" cy="299.9" r="3.3" fill="#2ca02c" stroke="#ffffff" stroke-width="1"/>
<line x1="533.3" y1="299.9" x2="537.1" y2="299.9" stroke="#9aa4b2" stroke-width="1"/>
<circle cx="537.1" cy="299.9" r="3.3" fill="#2ca02c" stroke="#ffffff" stroke-width="1"/>
<line x1="537.1" y1="299.9" x2="541.0" y2="299.9" stroke="#9aa4b2" stroke-width="1"/>
<circle cx="541.0" cy="299.9" r="5.0" fill="#2ca02c" stroke="#ffffff" stroke-width="1"/>
<line x1="541.0" y1="299.9" x2="544.9" y2="299.9" stroke="#9aa4b2" stroke-width="1"/>
<circle cx="544.9" cy="299.9" r="3.3" fill="#2ca02c" stroke="#ffffff" stroke-width="1"/>
<line x1="544.9" y1="299.9" x2="548.7" y2="299.9" stroke="#9aa4b2" stroke-width="1"/>
<circle cx="548.7" cy="299.9" r="3.3" fill="#2ca02c" stroke="#ffffff" stroke-width="1"/>
<line x1="548.7" y1="299.9" x2="552.6" y2="299.9" stroke="#9aa4b2" stroke-width="1"/>
<circle cx="552.6" cy="299.9" r="3.3" fill="#2ca02c" stroke="#ffffff" stroke-width="1"/>
<line x1="552.6" y1="299.9" x2="556.4" y2="299.9" stroke="#9aa4b2" stroke-width="1"/>
<circle cx="556.4" cy="299.9" r="3.3" fill="#2ca02c" stroke="#ffffff" stroke-width="1"/>
<line x1="556.4" y1="299.9" x2="560.3" y2="299.9" stroke="#9aa4b2" stroke-width="1"/>
<circle cx="560.3" cy="299.9" r="3.3" fill="#2ca02c" stroke="#ffffff" stroke-width="1"/>
<line x1="560.3" y1="299.9" x2="564.2" y2="299.9" stroke="#9aa4b2" stroke-width="1"/>
<circle cx="564.2" cy="299.9" r="3.3" fill="#2ca02c" stroke="#ffffff" stroke-width="1"/>
<line x1="564.2" y1="299.9" x2="568.0" y2="299.9" stroke="#9aa4b2" stroke-width="1"/>
<circle cx="568.0" cy="299.9" r="3.3" fill="#2ca02c" stroke="#ffffff" stroke-width="1"/>
<line x1="568.0" y1="299.9" x2="571.9" y2="299.9" stroke="#9aa4b2" stroke-width="1"/>
<circle cx="571.9" cy="299.9" r="5.0" fill="#2ca02c" stroke="#ffffff" stroke-width="1"/>
<line x1="571.9" y1="299.9" x2="575.7" y2="299.9" stroke="#9aa4b2" stroke-width="1"/>
<circle cx="575.7" cy="299.9" r="3.3" fill="#2ca02c" stroke="#ffffff" stroke-width="1"/>
<line x1="575.7" y1="299.9" x2="579.6" y2="299.9" stroke="#9aa4b2" stroke-width="1"/>
<circle cx="579.6" cy="299.9" r="3.3" fill="#2ca02c" stroke="#ffffff" stroke-width="1"/>
<line x1="579.6" y1="299.9" x2="583.4" y2="299.9" stroke="#9aa4b2" stroke-width="1"/>
<circle cx="583.4" cy="299.9" r="3.3" fill="#2ca02c" stroke="#ffffff" stroke-width="1"/>
<line x1="583.4" y1="299.9" x2="587.3" y2="299.9" stroke="#9aa4b2" stroke-width="1"/>
<circle cx="587.3" cy="299.9" r="3.3" fill="#2ca02c" stroke="#ffffff" stroke-width="1"/>
<line x1="587.3" y1="299.9" x2="591.2" y2="299.9" stroke="#9aa4b2" stroke-width="1"/>
<circle cx="591.2" cy="299.9" r="3.3" fill="#2ca02c" stroke="#ffffff" stroke-width="1"/>
<line x1="591.2" y1="299.9" x2="595.0" y2="299.9" stroke="#9aa4b2" stroke-width="1"/>
<circle cx="595.0" cy="299.9" r="3.3" fill="#2ca02c" stroke="#ffffff" stroke-width="1"/>
<line x1="595.0" y1="299.9" x2="598.9" y2="299.9" stroke="#9aa4b2" stroke-width="1"/>
<circle cx="598.9" cy="299.9" r="3.3" fill="#2ca02c" stroke="#ffffff" stroke-width="1"/>
<line x1="598.9" y1="299.9" x2="602.7" y2="299.9" stroke="#9aa4b2" stroke-width="1"/>
<circle cx="602.7" cy="299.9" r="5.0" fill="#2ca02c" stroke="#ffffff" stroke-width="1"/>
<line x1="602.7" y1="299.9" x2="606.6" y2="299.9" stroke="#9aa4b2" stroke-width="1"/>
<circle cx="606.6" cy="299.9" r="3.3" fill="#2ca02c" stroke="#ffffff" stroke-width="1"/>
<line x1="606.6" y1="299.9" x2="610.4" y2="299.9" stroke="#9aa4b2" stroke-width="1"/>
<circle cx="610.4" cy="299.9" r="3.3" fill="#2ca02c" stroke="#ffffff" stroke-width="1"/>
<line x1="610.4" y1="299.9" x2="614.3" y2="299.9" stroke="#9aa4b2" stroke-width="1"/>
<circle cx="614.3" cy="299.9" r="3.3" fill="#2ca02c" stroke="#ffffff" stroke-width="1"/>
<line x1="614.3" y1="299.9" x2="618.2" y2="299.9" stroke="#9aa4b2" stroke-width="1"/>
<circle cx="618.2" cy="299.9" r="3.3" fill="#2ca02c" stroke="#ffffff" stroke-width="1"/>
<line x1="618.2" y1="299.9" x2="622.0" y2="299.9" stroke="#9aa4b2" stroke-width="1"/>
<circle cx="622.0" cy="299.9" r="3.3" fill="#2ca02c" stroke="#ffffff" stroke-width="1"/>
<line x1="622.0" y1="299.9" x2="625.9" y2="299.9" stroke="#9aa4b2" stroke-width="1"/>
<circle cx="625.9" cy="299.9" r="3.3" fill="#2ca02c" stroke="#ffffff" stroke-width="1"/>
<line x1="625.9" y1="299.9" x2="629.7" y2="299.9" stroke="#9aa4b2" stroke-width="1"/>
<circle cx="629.7" cy="299.9" r="3.3" fill="#2ca02c" stroke="#ffffff" stroke-width="1"/>
<line x1="629.7" y1="299.9" x2="633.6" y2="299.9" stroke="#9aa4b2" stroke-width="1"/>
<circle cx="633.6" cy="299.9" r="5.0" fill="#2ca02c" stroke="#ffffff" stroke-width="1"/>
<line x1="633.6" y1="299.9" x2="637.5" y2="299.9" stroke="#9aa4b2" stroke-width="1"/>
<circle cx="637.5" cy="299.9" r="3.3" fill="#2ca02c" stroke="#ffffff" stroke-width="1"/>
<line x1="637.5" y1="299.9" x2="641.3" y2="299.9" stroke="#9aa4b2" stroke-width="1"/>
<circle cx="641.3" cy="299.9" r="3.3" fill="#2ca02c" stroke="#ffffff" stroke-width="1"/>
<line x1="641.3" y1="299.9" x2="645.2" y2="299.9" stroke="#9aa4b2" stroke-width="1"/>
<circle cx="645.2" cy="299.9" r="3.3" fill="#2ca02c" stroke="#ffffff" stroke-width="1"/>
<line x1="645.2" y1="299.9" x2="649.0" y2="299.9" stroke="#9aa4b2" stroke-width="1"/>
<circle cx="649.0" cy="299.9" r="3.3" fill="#2ca02c" stroke="#ffffff" stroke-width="1"/>
<line x1="649.0" y1="299.9" x2="652.9" y2="299.9" stroke="#9aa4b2" stroke-width="1"/>
<circle cx="652.9" cy="299.9" r="3.3" fill="#2ca02c" stroke="#ffffff" stroke-width="1"/>
<line x1="652.9" y1="299.9" x2="656.8" y2="299.9" stroke="#9aa4b2" stroke-width="1"/>
<circle cx="656.8" cy="299.9" r="3.3" fill="#2ca02c" stroke="#ffffff" stroke-width="1"/>
<line x1="656.8" y1="299.9" x2="660.6" y2="299.9" stroke="#9aa4b2" stroke-width="1"/>
<circle cx="660.6" cy="299.9" r="3.3" fill="#2ca02c" stroke="#ffffff" stroke-width="1"/>
<line x1="660.6" y1="299.9" x2="664.5" y2="299.9" stroke="#9aa4b2" stroke-width="1"/>
<circle cx="664.5" cy="299.9" r="5.0" fill="#2ca02c" stroke="#ffffff" stroke-width="1"/>
<line x1="664.5" y1="299.9" x2="668.3" y2="299.9" stroke="#9aa4b2" stroke-width="1"/>
<circle cx="668.3" cy="299.9" r="3.3" fill="#2ca02c" stroke="#ffffff" stroke-width="1"/>
<line x1="668.3" y1="299.9" x2="672.2" y2="299.9" stroke="#9aa4b2" stroke-width="1"/>
<circle cx="672.2" cy="299.9" r="3.3" fill="#2ca02c" stroke="#ffffff" stroke-width="1"/>
<line x1="672.2" y1="299.9" x2="676.0" y2="299.9" stroke="#9aa4b2" stroke-width="1"/>
<circle cx="676.0" cy="299.9" r="3.3" fill="#2ca02c" stroke="#ffffff" stroke-width="1"/>
<line x1="676.0" y1="299.9" x2="679.9" y2="299.9" stroke="#9aa4b2" stroke-width="1"/>
<circle cx="679.9" cy="299.9" r="3.3" fill="#2ca02c" stroke="#ffffff" stroke-width="1"/>
<line x1="679.9" y1="299.9" x2="683.8" y2="299.9" stroke="#9aa4b2" stroke-width="1"/>
<circle cx="683.8" cy="299.9" r="3.3" fill="#2ca02c" stroke="#ffffff" stroke-width="1"/>
<line x1="683.8" y1="299.9" x2="687.6" y2="299.9" stroke="#9aa4b2" stroke-width="1"/>
<circle cx="687.6" cy="299.9" r="3.3" fill="#2ca02c" stroke="#ffffff" stroke-width="1"/>
<line x1="687.6" y1="299.9" x2="691.5" y2="299.9" stroke="#9aa4b2" stroke-width="1"/>
<circle cx="691.5" cy="299.9" r="3.3" fill="#2ca02c" stroke="#ffffff" stroke-width="1"/>
<line x1="691.5" y1="299.9" x2="695.3" y2="299.9" stroke="#9aa4b2" stroke-width="1"/>
<circle cx="695.3" cy="299.9" r="5.0" fill="#2ca02c" stroke="#ffffff" stroke-width="1"/>
<line x1="695.3" y1="299.9" x2="699.2" y2="299.9" stroke="#9aa4b2" stroke-width="1"/>
<circle cx="699.2" cy="299.9" r="3.3" fill="#2ca02c" stroke="#ffffff" stroke-width="1"/>
<line x1="699.2" y1="299.9" x2="703.1" y2="299.9" stroke="#9aa4b2" stroke-width="1"/>
<circle cx="703.1" cy="299.9" r="3.3" fill="#2ca02c" stroke="#ffffff" stroke-width="1"/>
<line x1="703.1" y1="299.9" x2="706.9" y2="299.9" stroke="#9aa4b2" stroke-width="1"/>
<circle cx="706.9" cy="299.9" r="3.3" fill="#2ca02c" stroke="#ffffff" stroke-width="1"/>
<line x1="706.9" y1="299.9" x2="710.8" y2="299.9" stroke="#9aa4b2" stroke-width="1"/>
<circle cx="710.8" cy="299.9" r="3.3" fill="#2ca02c" stroke="#ffffff" stroke-width="1"/>
<line x1="710.8" y1="299.9" x2="714.6" y2="299.9" stroke="#9aa4b2" stroke-width="1"/>
<circle cx="714.6" cy="299.9" r="3.3" fill="#2ca02c" stroke="#ffffff" stroke-width="1"/>
<line x1="714.6" y1="299.9" x2="718.5" y2="299.9" stroke="#9aa4b2" stroke-width="1"/>
<circle cx="718.5" cy="299.9" r="3.3" fill="#2ca02c" stroke="#ffffff" stroke-width="1"/>
<line x1="718.5" y1="299.9" x2="722.3" y2="299.9" stroke="#9aa4b2" stroke-width="1"/>
<circle cx="722.3" cy="299.9" r="3.3" fill="#2ca02c" stroke="#ffffff" stroke-width="1"/>
<line x1="722.3" y1="299.9" x2="726.2" y2="299.9" stroke="#9aa4b2" stroke-width="1"/>
<circle cx="726.2" cy="299.9" r="5.0" fill="#2ca02c" stroke="#ffffff" stroke-width="1"/>
<line x1="726.2" y1="299.9" x2="730.1" y2="299.9" stroke="#9aa4b2" stroke-width="1"/>
<circle cx="730.1" cy="299.9" r="3.3" fill="#2ca02c" stroke="#ffffff" stroke-width="1"/>
<line x1="730.1" y1="299.9" x2="733.9" y2="299.9" stroke="#9aa4b2" stroke-width="1"/>
<circle cx="733.9" cy="299.9" r="3.3" fill="#2ca02c" stroke="#ffffff" stroke-width="1"/>
<line x1="733.9" y1="299.9" x2="737.8" y2="299.9" stroke="#9aa4b2" stroke-width="1"/>
<circle cx="737.8" cy="299.9" r="3.3" fill="#2ca02c" stroke="#ffffff" stroke-width="1"/>
<line x1="737.8" y1="299.9" x2="741.6" y2="299.9" stroke="#9aa4b2" stroke-width="1"/>
<circle cx="741.6" cy="299.9" r="3.3" fill="#2ca02c" stroke="#ffffff" stroke-width="1"/>
<line x1="741.6" y1="299.9" x2="745.5" y2="299.9" stroke="#9aa4b2" stroke-width="1"/>
<circle cx="745.5" cy="299.9" r="3.3" fill="#2ca02c" stroke="#ffffff" stroke-width="1"/>
<line x1="745.5" y1="299.9" x2="749.4" y2="299.9" stroke="#9aa4b2" stroke-width="1"/>
<circle cx="749.4" cy="299.9" r="3.3" fill="#2ca02c" stroke="#ffffff" stroke-width="1"/>
<line x1="749.4" y1="299.9" x2="753.2" y2="299.9" stroke="#9aa4b2" stroke-width="1"/>
<circle cx="753.2" cy="299.9" r="3.3" fill="#2ca02c" stroke="#ffffff" stroke-width="1"/>
<line x1="753.2" y1="299.9" x2="757.1" y2="299.9" stroke="#9aa4b2" stroke-width="1"/>
<circle cx="757.1" cy="299.9" r="5.0" fill="#2ca02c" stroke="#ffffff" stroke-width="1"/>
<line x1="757.1" y1="299.9" x2="760.9" y2="299.9" stroke="#9aa4b2" stroke-width="1"/>
<circle cx="760.9" cy="299.9" r="3.3" fill="#2ca02c" stroke="#ffffff" stroke-width="1"/>
<line x1="760.9" y1="299.9" x2="764.8" y2="299.9" stroke="#9aa4b2" stroke-width="1"/>
<circle cx="764.8" cy="299.9" r="3.3" fill="#2ca02c" stroke="#ffffff" stroke-width="1"/>
<line x1="764.8" y1="299.9" x2="768.6" y2="299.9" stroke="#9aa4b2" stroke-width="1"/>
<circle cx="768.6" cy="299.9" r="3.3" fill="#2ca02c" stroke="#ffffff" stroke-width="1"/>
<line x1="768.6" y1="299.9" x2="772.5" y2="299.9" stroke="#9aa4b2" stroke-width="1"/>
<circle cx="772.5" cy="299.9" r="3.3" fill="#2ca02c" stroke="#ffffff" stroke-width="1"/>
<line x1="772.5" y1="299.9" x2="776.4" y2="299.9" stroke="#9aa4b2" stroke-width="1"/>
<circle cx="776.4" cy="299.9" r="3.3" fill="#2ca02c" stroke="#ffffff" stroke-width="1"/>
<line x1="776.4" y1="299.9" x2="780.2" y2="299.9" stroke="#9aa4b2" stroke-width="1"/>
<circle cx="780.2" cy="299.9" r="3.3" fill="#2ca02c" stroke="#ffffff" stroke-width="1"/>
<line x1="780.2" y1="299.9" x2="784.1" y2="299.9" stroke="#9aa4b2" stroke-width="1"/>
<circle cx="784.1" cy="299.9" r="3.3" fill="#2ca02c" stroke="#ffffff" stroke-width="1"/>
<line x1="784.1" y1="299.9" x2="787.9" y2="299.9" stroke="#9aa4b2" stroke-width="1"/>
<circle cx="787.9" cy="299.9" r="5.0" fill="#2ca02c" stroke="#ffffff" stroke-width="1"/>
<line x1="787.9" y1="299.9" x2="791.8" y2="299.9" stroke="#9aa4b2" stroke-width="1"/>
<circle cx="791.8" cy="299.9" r="3.3" fill="#2ca02c" stroke="#ffffff" stroke-width="1"/>
<line x1="791.8" y1="299.9" x2="795.6" y2="299.9" stroke="#9aa4b2" stroke-width="1"/>
<circle cx="795.6" cy="299.9" r="3.3" fill="#2ca02c" stroke="#ffffff" stroke-width="1"/>
<line x1="795.6" y1="299.9" x2="799.5" y2="299.9" stroke="#9aa4b2" stroke-width="1"/>
<circle cx="799.5" cy="299.9" r="3.3" fill="#2ca02c" stroke="#ffffff" stroke-width="1"/>
<line x1="799.5" y1="299.9" x2="803.4" y2="299.9" stroke="#9aa4b2" stroke-width="1"/>
<circle cx="803.4" cy="299.9" r="3.3" fill="#2ca02c" stroke="#ffffff" stroke-width="1"/>
<line x1="803.4" y1="299.9" x2="807.2" y2="299.9" stroke="#9aa4b2" stroke-width="1"/>
<circle cx="807.2" cy="299.9" r="3.3" fill="#2ca02c" stroke="#ffffff" stroke-width="1"/>
<line x1="807.2" y1="299.9" x2="811.1" y2="299.9" stroke="#9aa4b2" stroke-width="1"/>
<circle cx="811.1" cy="299.9" r="3.3" fill="#2ca02c" stroke="#ffffff" stroke-width="1"/>
<line x1="811.1" y1="299.9" x2="814.9" y2="299.9" stroke="#9aa4b2" stroke-width="1"/>
<circle cx="814.9" cy="299.9" r="3.3" fill="#2ca02c" stroke="#ffffff" stroke-width="1"/>
<line x1="814.9" y1="299.9" x2="818.8" y2="299.9" stroke="#9aa4b2" stroke-width="1"/>
<circle cx="818.8" cy="299.9" r="5.0" fill="#2ca02c" stroke="#ffffff" stroke-width="1"/>
<line x1="818.8" y1="299.9" x2="822.7" y2="299.9" stroke="#9aa4b2" stroke-width="1"/>
<circle cx="822.7" cy="299.9" r="3.3" fill="#2ca02c" stroke="#ffffff" stroke-width="1"/>
<line x1="822.7" y1="299.9" x2="826.5" y2="299.9" stroke="#9aa4b2" stroke-width="1"/>
<circle cx="826.5" cy="299.9" r="3.3" fill="#2ca02c" stroke="#ffffff" stroke-width="1"/>
<line x1="826.5" y1="299.9" x2="830.4" y2="299.9" stroke="#9aa4b2" stroke-width="1"/>
<circle cx="830.4" cy="299.9" r="3.3" fill="#2ca02c" stroke="#ffffff" stroke-width="1"/>
<line x1="830.4" y1="299.9" x2="834.2" y2="299.9" stroke="#9aa4b2" stroke-width="1"/>
<circle cx="834.2" cy="299.9" r="3.3" fill="#2ca02c" stroke="#ffffff" stroke-width="1"/>
<line x1="834.2" y1="299.9" x2="838.1" y2="299.9" stroke="#9aa4b2" stroke-width="1"/>
<circle cx="838.1" cy="299.9" r="3.3" fill="#2ca02c" stroke="#ffffff" stroke-width="1"/>
<line x1="838.1" y1="299.9" x2="841.9" y2="299.9" stroke="#9aa4b2" stroke-width="1"/>
<circle cx="841.9" cy="299.9" r="3.3" fill="#2ca02c" stroke="#ffffff" stroke-width="1"/>
<line x1="841.9" y1="299.9" x2="845.8" y2="299.9" stroke="#9aa4b2" stroke-width="1"/>
<circle cx="845.8" cy="299.9" r="3.3" fill="#2ca02c" stroke="#ffffff" stroke-width="1"/>
<line x1="845.8" y1="299.9" x2="849.7" y2="299.9" stroke="#9aa4b2" stroke-width="1"/>
<circle cx="849.7" cy="299.9" r="5.0" fill="#2ca02c" stroke="#ffffff" stroke-width="1"/>
<line x1="849.7" y1="299.9" x2="853.5" y2="299.9" stroke="#9aa4b2" stroke-width="1"/>
<circle cx="853.5" cy="299.9" r="3.3" fill="#2ca02c" stroke="#ffffff" stroke-width="1"/>
<line x1="853.5" y1="299.9" x2="857.4" y2="299.9" stroke="#9aa4b2" stroke-width="1"/>
<circle cx="857.4" cy="299.9" r="3.3" fill="#2ca02c" stroke="#ffffff" stroke-width="1"/>
<line x1="857.4" y1="299.9" x2="861.2" y2="299.9" stroke="#9aa4b2" stroke-width="1"/>
<circle cx="861.2" cy="299.9" r="3.3" fill="#2ca02c" stroke="#ffffff" stroke-width="1"/>
<line x1="861.2" y1="299.9" x2="865.1" y2="299.9" stroke="#9aa4b2" stroke-width="1"/>
<circle cx="865.1" cy="299.9" r="3.3" fill="#2ca02c" stroke="#ffffff" stroke-width="1"/>
<line x1="865.1" y1="299.9" x2="869.0" y2="299.9" stroke="#9aa4b2" stroke-width="1"/>
<circle cx="869.0" cy="299.9" r="3.3" fill="#2ca02c" stroke="#ffffff" stroke-width="1"/>
<line x1="869.0" y1="299.9" x2="872.8" y2="299.9" stroke="#9aa4b2" stroke-width="1"/>
<circle cx="872.8" cy="299.9" r="3.3" fill="#2ca02c" stroke="#ffffff" stroke-width="1"/>
<line x1="872.8" y1="299.9" x2="876.7" y2="299.9" stroke="#9aa4b2" stroke-width="1"/>
<circle cx="876.7" cy="299.9" r="3.3" fill="#2ca02c" stroke="#ffffff" stroke-width="1"/>
<line x1="876.7" y1="299.9" x2="880.5" y2="299.9" stroke="#9aa4b2" stroke-width="1"/>
<circle cx="880.5" cy="299.9" r="5.0" fill="#2ca02c" stroke="#ffffff" stroke-width="1"/>
<line x1="880.5" y1="299.9" x2="884.4" y2="299.9" stroke="#9aa4b2" stroke-width="1"/>
<circle cx="884.4" cy="299.9" r="3.3" fill="#2ca02c" stroke="#ffffff" stroke-width="1"/>
<line x1="884.4" y1="299.9" x2="888.2" y2="299.9" stroke="#9aa4b2" stroke-width="1"/>
<circle cx="888.2" cy="299.9" r="3.3" fill="#2ca02c" stroke="#ffffff" stroke-width="1"/>
<line x1="888.2" y1="299.9" x2="892.1" y2="299.9" stroke="#9aa4b2" stroke-width="1"/>
<circle cx="892.1" cy="299.9" r="3.3" fill="#2ca02c" stroke="#ffffff" stroke-width="1"/>
<line x1="892.1" y1="299.9" x2="896.0" y2="299.9" stroke="#9aa4b2" stroke-width="1"/>
<circle cx="896.0" cy="299.9" r="3.3" fill="#2ca02c" stroke="#ffffff" stroke-width="1"/>
<line x1="896.0" y1="299.9" x2="899.8" y2="299.9" stroke="#9aa4b2" stroke-width="1"/>
<circle cx="899.8" cy="299.9" r="3.3" fill="#2ca02c" stroke="#ffffff" stroke-width="1"/>
<line x1="899.8" y1="299.9" x2="903.7" y2="299.9" stroke="#9aa4b2" stroke-width="1"/>
<circle cx="903.7" cy="299.9" r="3.3" fill="#2ca02c" stroke="#ffffff" stroke-width="1"/>
<line x1="903.7" y1="299.9" x2="907.5" y2="299.9" stroke="#9aa4b2" stroke-width="1"/>
<circle cx="907.5" cy="299.9" r="3.3" fill="#2ca02c" stroke="#ffffff" stroke-width="1"/>
<line x1="907.5" y1="299.9" x2="911.4" y2="299.9" stroke="#9aa4b2" stroke-width="1"/>
<circle cx="911.4" cy="299.9" r="5.0" fill="#2ca02c" stroke="#ffffff" stroke-width="1"/>
<line x1="911.4" y1="299.9" x2="915.3" y2="299.9" stroke="#9aa4b2" stroke-width="1"/>
<circle cx="915.3" cy="299.9" r="3.3" fill="#2ca02c" stroke="#ffffff" stroke-width="1"/>
<line x1="915.3" y1="299.9" x2="919.1" y2="299.9" stroke="#9aa4b2" stroke-width="1"/>
<circle cx="919.1" cy="299.9" r="3.3" fill="#2ca02c" stroke="#ffffff" stroke-width="1"/>
<line x1="919.1" y1="299.9" x2="923.0" y2="299.9" stroke="#9aa4b2" stroke-width="1"/>
<circle cx="923.0" cy="299.9" r="3.3" fill="#2ca02c" stroke="#ffffff" stroke-width="1"/>
<line x1="923.0" y1="299.9" x2="926.8" y2="299.9" stroke="#9aa4b2" stroke-width="1"/>
<circle cx="926.8" cy="299.9" r="3.3" fill="#2ca02c" stroke="#ffffff" stroke-width="1"/>
<line x1="926.8" y1="299.9" x2="930.7" y2="299.9" stroke="#9aa4b2" stroke-width="1"/>
<circle cx="930.7" cy="299.9" r="3.3" fill="#2ca02c" stroke="#ffffff" stroke-width="1"/>
<line x1="930.7" y1="299.9" x2="934.6" y2="299.9" stroke="#9aa4b2" stroke-width="1"/>
<circle cx="934.6" cy="299.9" r="3.3" fill="#2ca02c" stroke="#ffffff" stroke-width="1"/>
<line x1="934.6" y1="299.9" x2="938.4" y2="299.9" stroke="#9aa4b2" stroke-width="1"/>
<circle cx="938.4" cy="299.9" r="3.3" fill="#2ca02c" stroke="#ffffff" stroke-width="1"/>
<line x1="938.4" y1="299.9" x2="942.3" y2="299.9" stroke="#9aa4b2" stroke-width="1"/>
<circle cx="942.3" cy="299.9" r="5.0" fill="#2ca02c" stroke="#ffffff" stroke-width="1"/>
<line x1="942.3" y1="299.9" x2="946.1" y2="299.9" stroke="#9aa4b2" stroke-width="1"/>
<circle cx="946.1" cy="299.9" r="3.3" fill="#2ca02c" stroke="#ffffff" stroke-width="1"/>
<line x1="946.1" y1="299.9" x2="950.0" y2="299.9" stroke="#9aa4b2" stroke-width="1"/>
<circle cx="950.0" cy="299.9" r="3.3" fill="#2ca02c" stroke="#ffffff" stroke-width="1"/>
<line x1="950.0" y1="299.9" x2="953.8" y2="299.9" stroke="#9aa4b2" stroke-width="1"/>
<circle cx="953.8" cy="299.9" r="3.3" fill="#2ca02c" stroke="#ffffff" stroke-width="1"/>
<line x1="953.8" y1="299.9" x2="957.7" y2="299.9" stroke="#9aa4b2" stroke-width="1"/>
<circle cx="957.7" cy="299.9" r="3.3" fill="#2ca02c" stroke="#ffffff" stroke-width="1"/>
<line x1="957.7" y1="299.9" x2="961.6" y2="299.9" stroke="#9aa4b2" stroke-width="1"/>
<circle cx="961.6" cy="299.9" r="3.3" fill="#2ca02c" stroke="#ffffff" stroke-width="1"/>
<line x1="961.6" y1="299.9" x2="965.4" y2="299.9" stroke="#9aa4b2" stroke-width="1"/>
<circle cx="965.4" cy="299.9" r="3.3" fill="#2ca02c" stroke="#ffffff" stroke-width="1"/>
<line x1="965.4" y1="299.9" x2="969.3" y2="299.9" stroke="#9aa4b2" stroke-width="1"/>
<circle cx="969.3" cy="299.9" r="3.3" fill="#2ca02c" stroke="#ffffff" stroke-width="1"/>
<line x1="969.3" y1="299.9" x2="973.1" y2="299.9" stroke="#9aa4b2" stroke-width="1"/>
<circle cx="973.1" cy="299.9" r="5.0" fill="#2ca02c" stroke="#ffffff" stroke-width="1"/>
<line x1="973.1" y1="299.9" x2="977.0" y2="299.9" stroke="#9aa4b2" stroke-width="1"/>
<circle cx="977.0" cy="299.9" r="3.3" fill="#2ca02c" stroke="#ffffff" stroke-width="1"/>
<line x1="977.0" y1="299.9" x2="980.9" y2="299.9" stroke="#9aa4b2" stroke-width="1"/>
<circle cx="980.9" cy="299.9" r="3.3" fill="#2ca02c" stroke="#ffffff" stroke-width="1"/>
<line x1="980.9" y1="299.9" x2="984.7" y2="299.9" stroke="#9aa4b2" stroke-width="1"/>
<circle cx="984.7" cy="299.9" r="3.3" fill="#2ca02c" stroke="#ffffff" stroke-width="1"/>
<line x1="984.7" y1="299.9" x2="988.6" y2="299.9" stroke="#9aa4b2" stroke-width="1"/>
<circle cx="988.6" cy="299.9" r="3.3" fill="#2ca02c" stroke="#ffffff" stroke-width="1"/>
<line x1="988.6" y1="299.9" x2="992.4" y2="299.9" stroke="#9aa4b2" stroke-width="1"/>
<circle cx="992.4" cy="299.9" r="3.3" fill="#2ca02c" stroke="#ffffff" stroke-width="1"/>
<line x1="992.4" y1="299.9" x2="996.3" y2="299.9" stroke="#9aa4b2" stroke-width="1"/>
<circle cx="996.3" cy="299.9" r="3.3" fill="#2ca02c" stroke="#ffffff" stroke-width="1"/>
<line x1="996.3" y1="299.9" x2="1000.1" y2="299.9" stroke="#9aa4b2" stroke-width="1"/>
<circle cx="1000.1" cy="299.9" r="3.3" fill="#2ca02c" stroke="#ffffff" stroke-width="1"/>
<line x1="1000.1" y1="299.9" x2="1004.0" y2="299.9" stroke="#9aa4b2" stroke-width="1"/>
<circle cx="1004.0" cy="299.9" r="5.0" fill="#2ca02c" stroke="#ffffff" stroke-width="1"/>
<circle cx="86" cy="526" r="5" fill="#2ca02c" stroke="#ffffff" stroke-width="1"/>
<text x="98.0" y="530.0" text-anchor="start" font-family="Arial, sans-serif" font-size="13" font-weight="400" fill="#1f2937">detected bin matches reference</text>
<circle cx="326" cy="526" r="5" fill="#d62728" stroke="#ffffff" stroke-width="1"/>
<text x="338.0" y="530.0" text-anchor="start" font-family="Arial, sans-serif" font-size="13" font-weight="400" fill="#1f2937">detected bin changes</text>
<text x="541.0" y="554.0" text-anchor="middle" font-family="Arial, sans-serif" font-size="14" font-weight="700" fill="#1f2937">Energy datapath width (bits)</text>
<text x="20" y="273.0" text-anchor="middle" font-family="Arial, sans-serif" font-size="14" font-weight="700" fill="#1f2937" transform="rotate(-90 20 273.0)">Detected bin after truncation</text>
</svg>
