<svg xmlns="http://www.w3.org/2000/svg" width="940" height="560" viewBox="0 0 940 560">
<rect width="100%" height="100%" fill="#ffffff"/>
<text x="470.0" y="32.0" text-anchor="middle" font-family="Arial, sans-serif" font-size="21" font-weight="700" fill="#1f2937">FIR Output / Magnitude Input Width Sweep</text>
<line x1="78" y1="482" x2="904" y2="482" stroke="#2e3440" stroke-width="1.5"/>
<line x1="78" y1="58" x2="78" y2="482" stroke="#2e3440" stroke-width="1.5"/>
<line x1="78" y1="455.5" x2="904" y2="455.5" stroke="#e3e8f0" stroke-width="1"/>
<text x="66.0" y="459.5" text-anchor="end" font-family="Arial, sans-serif" font-size="12" font-weight="400" fill="#1f2937">0</text>
<line x1="78" y1="402.5" x2="904" y2="402.5" stroke="#e3e8f0" stroke-width="1"/>
<text x="66.0" y="406.5" text-anchor="end" font-family="Arial, sans-serif" font-size="12" font-weight="400" fill="#1f2937">1</text>
<line x1="78" y1="349.5" x2="904" y2="349.5" stroke="#e3e8f0" stroke-width="1"/>
<text x="66.0" y="353.5" text-anchor="end" font-family="Arial, sans-serif" font-size="12" font-weight="400" fill="#1f2937">2</text>
<line x1="78" y1="296.5" x2="904" y2="296.5" stroke="#e3e8f0" stroke-width="1"/>
<text x="66.0" y="300.5" text-anchor="end" font-family="Arial, sans-serif" font-size="12" font-weight="400" fill="#1f2937">3</text>
<line x1="78" y1="243.5" x2="904" y2="243.5" stroke="#e3e8f0" stroke-width="1"/>
<text x="66.0" y="247.5" text-anchor="end" font-family="Arial, sans-serif" font-size="12" font-weight="400" fill="#1f2937">4</text>
<line x1="78" y1="190.5" x2="904" y2="190.5" stroke="#e3e8f0" stroke-width="1"/>
<text x="66.0" y="194.5" text-anchor="end" font-family="Arial, sans-serif" font-size="12" font-weight="400" fill="#1f2937">5</text>
<line x1="78" y1="137.5" x2="904" y2="137.5" stroke="#e3e8f0" stroke-width="1"/>
<text x="66.0" y="141.5" text-anchor="end" font-family="Arial, sans-serif" font-size="12" font-weight="400" fill="#1f2937">6</text>
<line x1="78" y1="84.5" x2="904" y2="84.5" stroke="#e3e8f0" stroke-width="1"/>
<text x="66.0" y="88.5" text-anchor="end" font-family="Arial, sans-serif" font-size="12" font-weight="400" fill="#1f2937">7</text>
<line x1="78.0" y1="482" x2="78.0" y2="488" stroke="#2e3440"/>
<text x="78.0" y="506.0" text-anchor="middle" font-family="Arial, sans-serif" font-size="12" font-weight="400" fill="#1f2937">16</text>
<line x1="181.2" y1="482" x2="181.2" y2="488" stroke="#2e3440"/>
<text x="181.2" y="506.0" text-anchor="middle" font-family="Arial, sans-serif" font-size="12" font-weight="400" fill="#1f2937">20</text>
<line x1="284.5" y1="482" x2="284.5" y2="488" stroke="#2e3440"/>
<text x="284.5" y="506.0" text-anchor="middle" font-family="Arial, sans-serif" font-size="12" font-weight="400" fill="#1f2937">24</text>
<line x1="387.8" y1="482" x2="387.8" y2="488" stroke="#2e3440"/>
<text x="387.8" y="506.0" text-anchor="middle" font-family="Arial, sans-serif" font-size="12" font-weight="400" fill="#1f2937">28</text>
<line x1="491.0" y1="482" x2="491.0" y2="488" stroke="#2e3440"/>
<text x="491.0" y="506.0" text-anchor="middle" font-family="Arial, sans-serif" font-size="12" font-weight="400" fill="#1f2937">32</text>
<line x1="594.2" y1="482" x2="594.2" y2="488" stroke="#2e3440"/>
<text x="594.2" y="506.0" text-anchor="middle" font-family="Arial, sans-serif" font-size="12" font-weight="400" fill="#1f2937">36</text>
<line x1="697.5" y1="482" x2="697.5" y2="488" stroke="#2e3440"/>
<text x="697.5" y="506.0" text-anchor="middle" font-family="Arial, sans-serif" font-size="12" font-weight="400" fill="#1f2937">40</text>
<line x1="800.8" y1="482" x2="800.8" y2="488" stroke="#2e3440"/>
<text x="800.8" y="506.0" text-anchor="middle" font-family="Arial, sans-serif" font-size="12" font-weight="400" fill="#1f2937">44</text>
<line x1="904.0" y1="482" x2="904.0" y2="488" stroke="#2e3440"/>
<text x="904.0" y="506.0" text-anchor="middle" font-family="Arial, sans-serif" font-size="12" font-weight="400" fill="#1f2937">48</text>
<line x1="78" y1="296.5" x2="904" y2="296.5" stroke="#111827" stroke-width="2" stroke-dasharray="7 5"/>
<text x="86.0" y="286.5" text-anchor="start" font-family="Arial, sans-serif" font-size="12" font-weight="700" fill="#1f2937">reference bin 3</text>
<rect x="413.6" y="58" width="490.4" height="424" fill="#e9f7ef" opacity="0.55"/>
<line x1="413.6" y1="58" x2="413.6" y2="482" stroke="#2ca02c" stroke-width="2"/>
<text x="421.6" y="76.0" text-anchor="start" font-family="Arial, sans-serif" font-size="12" font-weight="700" fill="#1f7a3a">exact at >= 29 signed bits</text>
<circle cx="78.0" cy="296.5" r="5.3" fill="#f0ad00" stroke="#ffffff" stroke-width="1"/>
<line x1="78.0" y1="296.5" x2="103.8" y2="84.5" stroke="#9aa4b2" stroke-width="1"/>
<circle cx="103.8" cy="84.5" r="4.2" fill="#d62728" stroke="#ffffff" stroke-width="1"/>
<line x1="103.8" y1="84.5" x2="129.6" y2="190.5" stroke="#9aa4b2" stroke-width="1"/>
<circle cx="129.6" cy="190.5" r="4.2" fill="#d62728" stroke="#ffffff" stroke-width="1"/>
<line x1="129.6" y1="190.5" x2="155.4" y2="455.5" stroke="#9aa4b2" stroke-width="1"/>
<circle cx="155.4" cy="455.5" r="4.2" fill="#d62728" stroke="#ffffff" stroke-width="1"/>
<line x1="155.4" y1="455.5" x2="181.2" y2="137.5" stroke="#9aa4b2" stroke-width="1"/>
<circle cx="181.2" cy="137.5" r="5.3" fill="#d62728" stroke="#ffffff" stroke-width="1"/>
<line x1="181.2" y1="137.5" x2="207.1" y2="349.5" stroke="#9aa4b2" stroke-width="1"/>
<circle cx="207.1" cy="349.5" r="4.2" fill="#d62728" stroke="#ffffff" stroke-width="1"/>
<line x1="207.1" y1="349.5" x2="232.9" y2="455.5" stroke="#9aa4b2" stroke-width="1"/>
<circle cx="232.9" cy="455.5" r="4.2" fill="#d62728" stroke="#ffffff" stroke-width="1"/>
<line x1="232.9" y1="455.5" x2="258.7" y2="402.5" stroke="#9aa4b2" stroke-width="1"/>
<circle cx="258.7" cy="402.5" r="4.2" fill="#d62728" stroke="#ffffff" stroke-width="1"/>
<line x1="258.7" y1="402.5" x2="284.5" y2="137.5" stroke="#9aa4b2" stroke-width="1"/>
<circle cx="284.5" cy="137.5" r="5.3" fill="#d62728" stroke="#ffffff" stroke-width="1"/>
<line x1="284.5" y1="137.5" x2="310.3" y2="349.5" stroke="#9aa4b2" stroke-width="1"/>
<circle cx="310.3" cy="349.5" r="4.2" fill="#d62728" stroke="#ffffff" stroke-width="1"/>
<line x1="310.3" y1="349.5" x2="336.1" y2="243.5" stroke="#9aa4b2" stroke-width="1"/>
<circle cx="336.1" cy="243.5" r="4.2" fill="#d62728" stroke="#ffffff" stroke-width="1"/>
<line x1="336.1" y1="243.5" x2="361.9" y2="349.5" stroke="#9aa4b2" stroke-width="1"/>
<circle cx="361.9" cy="349.5" r="4.2" fill="#d62728" stroke="#ffffff" stroke-width="1"/>
<line x1="361.9" y1="349.5" x2="387.8" y2="349.5" stroke="#9aa4b2" stroke-width="1"/>
<circle cx="387.8" cy="349.5" r="5.3" fill="#d62728" stroke="#ffffff" stroke-width="1"/>
<line x1="387.8" y1="349.5" x2="413.6" y2="296.5" stroke="#9aa4b2" stroke-width="1"/>
<circle cx="413.6" cy="296.5" r="4.2" fill="#2ca02c" stroke="#ffffff" stroke-width="1"/>
<line x1="413.6" y1="296.5" x2="439.4" y2="296.5" stroke="#9aa4b2" stroke-width="1"/>
<circle cx="439.4" cy="296.5" r="4.2" fill="#2ca02c" stroke="#ffffff" stroke-width="1"/>
<line x1="439.4" y1="296.5" x2="465.2" y2="296.5" stroke="#9aa4b2" stroke-width="1"/>
<circle cx="465.2" cy="296.5" r="4.2" fill="#2ca02c" stroke="#ffffff" stroke-width="1"/>
<line x1="465.2" y1="296.5" x2="491.0" y2="296.5" stroke="#9aa4b2" stroke-width="1"/>
<circle cx="491.0" cy="296.5" r="5.3" fill="#2ca02c" stroke="#ffffff" stroke-width="1"/>
<line x1="491.0" y1="296.5" x2="516.8" y2="296.5" stroke="#9aa4b2" stroke-width="1"/>
<circle cx="516.8" cy="296.5" r="4.2" fill="#2ca02c" stroke="#ffffff" stroke-width="1"/>
<line x1="516.8" y1="296.5" x2="542.6" y2="296.5" stroke="#9aa4b2" stroke-width="1"/>
<circle cx="542.6" cy="296.5" r="4.2" fill="#2ca02c" stroke="#ffffff" stroke-width="1"/>
<line x1="542.6" y1="296.5" x2="568.4" y2="296.5" stroke="#9aa4b2" stroke-width="1"/>
<circle cx="568.4" cy="296.5" r="4.2" fill="#2ca02c" stroke="#ffffff" stroke-width="1"/>
<line x1="568.4" y1="296.5" x2="594.2" y2="296.5" stroke="#9aa4b2" stroke-width="1"/>
<circle cx="594.2" cy="296.5" r="5.3" fill="#2ca02c" stroke="#ffffff" stroke-width="1"/>
<line x1="594.2" y1="296.5" x2="620.1" y2="296.5" stroke="#9aa4b2" stroke-width="1"/>
<circle cx="620.1" cy="296.5" r="4.2" fill="#2ca02c" stroke="#ffffff" stroke-width="1"/>
<line x1="620.1" y1="296.5" x2="645.9" y2="296.5" stroke="#9aa4b2" stroke-width="1"/>
<circle cx="645.9" cy="296.5" r="4.2" fill="#2ca02c" stroke="#ffffff" stroke-width="1"/>
<line x1="645.9" y1="296.5" x2="671.7" y2="296.5" stroke="#9aa4b2" stroke-width="1"/>
<circle cx="671.7" cy="296.5" r="4.2" fill="#2ca02c" stroke="#ffffff" stroke-width="1"/>
<line x1="671.7" y1="296.5" x2="697.5" y2="296.5" stroke="#9aa4b2" stroke-width="1"/>
<circle cx="697.5" cy="296.5" r="5.3" fill="#2ca02c" stroke="#ffffff" stroke-width="1"/>
<line x1="697.5" y1="296.5" x2="723.3" y2="296.5" stroke="#9aa4b2" stroke-width="1"/>
<circle cx="723.3" cy="296.5" r="4.2" fill="#2ca02c" stroke="#ffffff" stroke-width="1"/>
<line x1="723.3" y1="296.5" x2="749.1" y2="296.5" stroke="#9aa4b2" stroke-width="1"/>
<circle cx="749.1" cy="296.5" r="4.2" fill="#2ca02c" stroke="#ffffff" stroke-width="1"/>
<line x1="749.1" y1="296.5" x2="774.9" y2="296.5" stroke="#9aa4b2" stroke-width="1"/>
<circle cx="774.9" cy="296.5" r="4.2" fill="#2ca02c" stroke="#ffffff" stroke-width="1"/>
<line x1="774.9" y1="296.5" x2="800.8" y2="296.5" stroke="#9aa4b2" stroke-width="1"/>
<circle cx="800.8" cy="296.5" r="5.3" fill="#2ca02c" stroke="#ffffff" stroke-width="1"/>
<line x1="800.8" y1="296.5" x2="826.6" y2="296.5" stroke="#9aa4b2" stroke-width="1"/>
<circle cx="826.6" cy="296.5" r="4.2" fill="#2ca02c" stroke="#ffffff" stroke-width="1"/>
<line x1="826.6" y1="296.5" x2="852.4" y2="296.5" stroke="#9aa4b2" stroke-width="1"/>
<circle cx="852.4" cy="296.5" r="4.2" fill="#2ca02c" stroke="#ffffff" stroke-width="1"/>
<line x1="852.4" y1="296.5" x2="878.2" y2="296.5" stroke="#9aa4b2" stroke-width="1"/>
<circle cx="878.2" cy="296.5" r="4.2" fill="#2ca02c" stroke="#ffffff" stroke-width="1"/>
<line x1="878.2" y1="296.5" x2="904.0" y2="296.5" stroke="#9aa4b2" stroke-width="1"/>
<circle cx="904.0" cy="296.5" r="5.3" fill="#2ca02c" stroke="#ffffff" stroke-width="1"/>
<circle cx="86" cy="522" r="5" fill="#2ca02c" stroke="#ffffff" stroke-width="1"/>
<text x="98.0" y="526.0" text-anchor="start" font-family="Arial, sans-serif" font-size="13" font-weight="400" fill="#1f2937">exact energy match</text>
<circle cx="256" cy="522" r="5" fill="#f0ad00" stroke="#ffffff" stroke-width="1"/>
<text x="268.0" y="526.0" text-anchor="start" font-family="Arial, sans-serif" font-size="13" font-weight="400" fill="#1f2937">bin only matches</text>
<circle cx="438" cy="522" r="5" fill="#d62728" stroke="#ffffff" stroke-width="1"/>
<text x="450.0" y="526.0" text-anchor="start" font-family="Arial, sans-serif" font-size="13" font-weight="400" fill="#1f2937">detected bin changes</text>
<text x="491.0" y="552.0" text-anchor="middle" font-family="Arial, sans-serif" font-size="14" font-weight="700" fill="#1f2937">Signed FIR output / magnitude input width (bits)</text>
<text x="20" y="270.0" text-anchor="middle" font-family="Arial, sans-serif" font-size="14" font-weight="700" fill="#1f2937" transform="rotate(-90 20 270.0)">Detected bin</text>
</svg>
