<svg xmlns="http://www.w3.org/2000/svg" width="1080" height="600" viewBox="0 0 1080 600">
<rect width="100%" height="100%" fill="#ffffff"/>
<text x="540.0" y="36.0" text-anchor="middle" font-family="Arial, sans-serif" font-size="22" font-weight="700" fill="#1f2937">Post-Route Power by Architecture</text>
<line x1="90" y1="495" x2="1040" y2="495" stroke="#2e3440" stroke-width="1.5"/>
<line x1="90" y1="75" x2="90" y2="495" stroke="#2e3440" stroke-width="1.5"/>
<line x1="90" y1="495.0" x2="1040" y2="495.0" stroke="#d7dde8" stroke-width="1"/>
<text x="78.0" y="500.0" text-anchor="end" font-family="Arial, sans-serif" font-size="12" font-weight="400" fill="#1f2937">-0.0157</text>
<line x1="90" y1="411.0" x2="1040" y2="411.0" stroke="#d7dde8" stroke-width="1"/>
<text x="78.0" y="416.0" text-anchor="end" font-family="Arial, sans-serif" font-size="12" font-weight="400" fill="#1f2937">0.022</text>
<line x1="90" y1="327.0" x2="1040" y2="327.0" stroke="#d7dde8" stroke-width="1"/>
<text x="78.0" y="332.0" text-anchor="end" font-family="Arial, sans-serif" font-size="12" font-weight="400" fill="#1f2937">0.0597</text>
<line x1="90" y1="243.0" x2="1040" y2="243.0" stroke="#d7dde8" stroke-width="1"/>
<text x="78.0" y="248.0" text-anchor="end" font-family="Arial, sans-serif" font-size="12" font-weight="400" fill="#1f2937">0.0973</text>
<line x1="90" y1="159.0" x2="1040" y2="159.0" stroke="#d7dde8" stroke-width="1"/>
<text x="78.0" y="164.0" text-anchor="end" font-family="Arial, sans-serif" font-size="12" font-weight="400" fill="#1f2937">0.135</text>
<line x1="90" y1="75.0" x2="1040" y2="75.0" stroke="#d7dde8" stroke-width="1"/>
<text x="78.0" y="80.0" text-anchor="end" font-family="Arial, sans-serif" font-size="12" font-weight="400" fill="#1f2937">0.173</text>
<text x="117.9" y="520.0" text-anchor="middle" font-family="Arial, sans-serif" font-size="13" font-weight="700" fill="#1f2937">Baseline</text>
<rect x="97.0" y="110.0" width="10.4" height="385.0" rx="3" fill="#1f77b4"/>
<text x="102.2" y="104.0" text-anchor="middle" font-family="Arial, sans-serif" font-size="11" font-weight="400" fill="#1f2937">0.157</text>
<rect x="109.7" y="266.1" width="10.4" height="228.9" rx="3" fill="#2ca02c"/>
<text x="114.9" y="260.1" text-anchor="middle" font-family="Arial, sans-serif" font-size="11" font-weight="400" fill="#1f2937">0.087</text>
<rect x="122.4" y="303.9" width="10.4" height="191.1" rx="3" fill="#d62728"/>
<text x="127.6" y="297.9" text-anchor="middle" font-family="Arial, sans-serif" font-size="11" font-weight="400" fill="#1f2937">0.07</text>
<text x="173.8" y="520.0" text-anchor="middle" font-family="Arial, sans-serif" font-size="13" font-weight="700" fill="#1f2937">Pipelined</text>
<rect x="152.9" y="123.4" width="10.4" height="371.6" rx="3" fill="#1f77b4"/>
<text x="158.1" y="117.4" text-anchor="middle" font-family="Arial, sans-serif" font-size="11" font-weight="400" fill="#1f2937">0.151</text>
<rect x="165.6" y="279.4" width="10.4" height="215.6" rx="3" fill="#2ca02c"/>
<text x="170.8" y="273.4" text-anchor="middle" font-family="Arial, sans-serif" font-size="11" font-weight="400" fill="#1f2937">0.081</text>
<rect x="178.3" y="303.9" width="10.4" height="191.1" rx="3" fill="#d62728"/>
<text x="183.5" y="297.9" text-anchor="middle" font-family="Arial, sans-serif" font-size="11" font-weight="400" fill="#1f2937">0.07</text>
<text x="229.7" y="520.0" text-anchor="middle" font-family="Arial, sans-serif" font-size="13" font-weight="700" fill="#1f2937">Plus1</text>
<rect x="208.8" y="132.3" width="10.4" height="362.7" rx="3" fill="#1f77b4"/>
<text x="214.0" y="126.3" text-anchor="middle" font-family="Arial, sans-serif" font-size="11" font-weight="400" fill="#1f2937">0.147</text>
<rect x="221.5" y="290.6" width="10.4" height="204.4" rx="3" fill="#2ca02c"/>
<text x="226.7" y="284.6" text-anchor="middle" font-family="Arial, sans-serif" font-size="11" font-weight="400" fill="#1f2937">0.076</text>
<rect x="234.2" y="303.9" width="10.4" height="191.1" rx="3" fill="#d62728"/>
<text x="239.4" y="297.9" text-anchor="middle" font-family="Arial, sans-serif" font-size="11" font-weight="400" fill="#1f2937">0.07</text>
<text x="285.6" y="520.0" text-anchor="middle" font-family="Arial, sans-serif" font-size="13" font-weight="700" fill="#1f2937">Plus5</text>
<rect x="264.6" y="127.8" width="10.4" height="367.2" rx="3" fill="#1f77b4"/>
<text x="269.8" y="121.8" text-anchor="middle" font-family="Arial, sans-serif" font-size="11" font-weight="400" fill="#1f2937">0.149</text>
<rect x="277.3" y="286.1" width="10.4" height="208.9" rx="3" fill="#2ca02c"/>
<text x="282.5" y="280.1" text-anchor="middle" font-family="Arial, sans-serif" font-size="11" font-weight="400" fill="#1f2937">0.078</text>
<rect x="290.0" y="303.9" width="10.4" height="191.1" rx="3" fill="#d62728"/>
<text x="295.2" y="297.9" text-anchor="middle" font-family="Arial, sans-serif" font-size="11" font-weight="400" fill="#1f2937">0.07</text>
<text x="341.5" y="520.0" text-anchor="middle" font-family="Arial, sans-serif" font-size="13" font-weight="700" fill="#1f2937">Plus5 Tracker</text>
<rect x="320.5" y="127.8" width="10.4" height="367.2" rx="3" fill="#1f77b4"/>
<text x="325.7" y="121.8" text-anchor="middle" font-family="Arial, sans-serif" font-size="11" font-weight="400" fill="#1f2937">0.149</text>
<rect x="333.2" y="283.9" width="10.4" height="211.1" rx="3" fill="#2ca02c"/>
<text x="338.4" y="277.9" text-anchor="middle" font-family="Arial, sans-serif" font-size="11" font-weight="400" fill="#1f2937">0.079</text>
<rect x="345.9" y="303.9" width="10.4" height="191.1" rx="3" fill="#d62728"/>
<text x="351.1" y="297.9" text-anchor="middle" font-family="Arial, sans-serif" font-size="11" font-weight="400" fill="#1f2937">0.07</text>
<text x="397.4" y="520.0" text-anchor="middle" font-family="Arial, sans-serif" font-size="13" font-weight="700" fill="#1f2937">Plus5 FIR Out</text>
<rect x="376.4" y="130.1" width="10.4" height="364.9" rx="3" fill="#1f77b4"/>
<text x="381.6" y="124.1" text-anchor="middle" font-family="Arial, sans-serif" font-size="11" font-weight="400" fill="#1f2937">0.148</text>
<rect x="389.1" y="286.1" width="10.4" height="208.9" rx="3" fill="#2ca02c"/>
<text x="394.3" y="280.1" text-anchor="middle" font-family="Arial, sans-serif" font-size="11" font-weight="400" fill="#1f2937">0.078</text>
<rect x="401.8" y="303.9" width="10.4" height="191.1" rx="3" fill="#d62728"/>
<text x="407.0" y="297.9" text-anchor="middle" font-family="Arial, sans-serif" font-size="11" font-weight="400" fill="#1f2937">0.07</text>
<text x="453.2" y="520.0" text-anchor="middle" font-family="Arial, sans-serif" font-size="13" font-weight="700" fill="#1f2937">Plus5 FIR+Tracker</text>
<rect x="432.3" y="127.8" width="10.4" height="367.2" rx="3" fill="#1f77b4"/>
<text x="437.5" y="121.8" text-anchor="middle" font-family="Arial, sans-serif" font-size="11" font-weight="400" fill="#1f2937">0.149</text>
<rect x="445.0" y="283.9" width="10.4" height="211.1" rx="3" fill="#2ca02c"/>
<text x="450.2" y="277.9" text-anchor="middle" font-family="Arial, sans-serif" font-size="11" font-weight="400" fill="#1f2937">0.079</text>
<rect x="457.7" y="303.9" width="10.4" height="191.1" rx="3" fill="#d62728"/>
<text x="462.9" y="297.9" text-anchor="middle" font-family="Arial, sans-serif" font-size="11" font-weight="400" fill="#1f2937">0.07</text>
<text x="509.1" y="520.0" text-anchor="middle" font-family="Arial, sans-serif" font-size="13" font-weight="700" fill="#1f2937">Plus5 FIR+AccBuf</text>
<rect x="488.2" y="130.1" width="10.4" height="364.9" rx="3" fill="#1f77b4"/>
<text x="493.4" y="124.1" text-anchor="middle" font-family="Arial, sans-serif" font-size="11" font-weight="400" fill="#1f2937">0.148</text>
<rect x="500.9" y="288.3" width="10.4" height="206.7" rx="3" fill="#2ca02c"/>
<text x="506.1" y="282.3" text-anchor="middle" font-family="Arial, sans-serif" font-size="11" font-weight="400" fill="#1f2937">0.077</text>
<rect x="513.6" y="303.9" width="10.4" height="191.1" rx="3" fill="#d62728"/>
<text x="518.8" y="297.9" text-anchor="middle" font-family="Arial, sans-serif" font-size="11" font-weight="400" fill="#1f2937">0.07</text>
<text x="565.0" y="520.0" text-anchor="middle" font-family="Arial, sans-serif" font-size="13" font-weight="700" fill="#1f2937">Plus5 AccBuf+MagPipe</text>
<rect x="544.0" y="121.1" width="10.4" height="373.9" rx="3" fill="#1f77b4"/>
<text x="549.3" y="115.1" text-anchor="middle" font-family="Arial, sans-serif" font-size="11" font-weight="400" fill="#1f2937">0.152</text>
<rect x="556.7" y="279.4" width="10.4" height="215.6" rx="3" fill="#2ca02c"/>
<text x="562.0" y="273.4" text-anchor="middle" font-family="Arial, sans-serif" font-size="11" font-weight="400" fill="#1f2937">0.081</text>
<rect x="569.4" y="303.9" width="10.4" height="191.1" rx="3" fill="#d62728"/>
<text x="574.7" y="297.9" text-anchor="middle" font-family="Arial, sans-serif" font-size="11" font-weight="400" fill="#1f2937">0.07</text>
<text x="620.9" y="520.0" text-anchor="middle" font-family="Arial, sans-serif" font-size="13" font-weight="700" fill="#1f2937">Plus5 AccBuf+TrackCmp</text>
<rect x="599.9" y="121.1" width="10.4" height="373.9" rx="3" fill="#1f77b4"/>
<text x="605.1" y="115.1" text-anchor="middle" font-family="Arial, sans-serif" font-size="11" font-weight="400" fill="#1f2937">0.152</text>
<rect x="612.6" y="279.4" width="10.4" height="215.6" rx="3" fill="#2ca02c"/>
<text x="617.8" y="273.4" text-anchor="middle" font-family="Arial, sans-serif" font-size="11" font-weight="400" fill="#1f2937">0.081</text>
<rect x="625.3" y="303.9" width="10.4" height="191.1" rx="3" fill="#d62728"/>
<text x="630.5" y="297.9" text-anchor="middle" font-family="Arial, sans-serif" font-size="11" font-weight="400" fill="#1f2937">0.07</text>
<text x="676.8" y="520.0" text-anchor="middle" font-family="Arial, sans-serif" font-size="13" font-weight="700" fill="#1f2937">Plus5 AccBuf+Fanout</text>
<rect x="655.8" y="125.6" width="10.4" height="369.4" rx="3" fill="#1f77b4"/>
<text x="661.0" y="119.6" text-anchor="middle" font-family="Arial, sans-serif" font-size="11" font-weight="400" fill="#1f2937">0.15</text>
<rect x="668.5" y="281.7" width="10.4" height="213.3" rx="3" fill="#2ca02c"/>
<text x="673.7" y="275.7" text-anchor="middle" font-family="Arial, sans-serif" font-size="11" font-weight="400" fill="#1f2937">0.08</text>
<rect x="681.2" y="303.9" width="10.4" height="191.1" rx="3" fill="#d62728"/>
<text x="686.4" y="297.9" text-anchor="middle" font-family="Arial, sans-serif" font-size="11" font-weight="400" fill="#1f2937">0.07</text>
<text x="732.6" y="520.0" text-anchor="middle" font-family="Arial, sans-serif" font-size="13" font-weight="700" fill="#1f2937">Plus5 AccBuf+Energy64</text>
<rect x="711.7" y="145.7" width="10.4" height="349.3" rx="3" fill="#1f77b4"/>
<text x="716.9" y="139.7" text-anchor="middle" font-family="Arial, sans-serif" font-size="11" font-weight="400" fill="#1f2937">0.141</text>
<rect x="724.4" y="303.9" width="10.4" height="191.1" rx="3" fill="#2ca02c"/>
<text x="729.6" y="297.9" text-anchor="middle" font-family="Arial, sans-serif" font-size="11" font-weight="400" fill="#1f2937">0.07</text>
<rect x="737.1" y="303.9" width="10.4" height="191.1" rx="3" fill="#d62728"/>
<text x="742.3" y="297.9" text-anchor="middle" font-family="Arial, sans-serif" font-size="11" font-weight="400" fill="#1f2937">0.07</text>
<text x="788.5" y="520.0" text-anchor="middle" font-family="Arial, sans-serif" font-size="13" font-weight="700" fill="#1f2937">Plus5 AccBuf+Energy62</text>
<rect x="767.6" y="147.9" width="10.4" height="347.1" rx="3" fill="#1f77b4"/>
<text x="772.8" y="141.9" text-anchor="middle" font-family="Arial, sans-serif" font-size="11" font-weight="400" fill="#1f2937">0.14</text>
<rect x="780.3" y="303.9" width="10.4" height="191.1" rx="3" fill="#2ca02c"/>
<text x="785.5" y="297.9" text-anchor="middle" font-family="Arial, sans-serif" font-size="11" font-weight="400" fill="#1f2937">0.07</text>
<rect x="793.0" y="303.9" width="10.4" height="191.1" rx="3" fill="#d62728"/>
<text x="798.2" y="297.9" text-anchor="middle" font-family="Arial, sans-serif" font-size="11" font-weight="400" fill="#1f2937">0.07</text>
<text x="844.4" y="520.0" text-anchor="middle" font-family="Arial, sans-serif" font-size="13" font-weight="700" fill="#1f2937">Plus5 AccBuf+E62 FIR29</text>
<rect x="823.5" y="179.1" width="10.4" height="315.9" rx="3" fill="#1f77b4"/>
<text x="828.7" y="173.1" text-anchor="middle" font-family="Arial, sans-serif" font-size="11" font-weight="400" fill="#1f2937">0.126</text>
<rect x="836.2" y="335.2" width="10.4" height="159.8" rx="3" fill="#2ca02c"/>
<text x="841.4" y="329.2" text-anchor="middle" font-family="Arial, sans-serif" font-size="11" font-weight="400" fill="#1f2937">0.056</text>
<rect x="848.9" y="303.9" width="10.4" height="191.1" rx="3" fill="#d62728"/>
<text x="854.1" y="297.9" text-anchor="middle" font-family="Arial, sans-serif" font-size="11" font-weight="400" fill="#1f2937">0.07</text>
<text x="900.3" y="520.0" text-anchor="middle" font-family="Arial, sans-serif" font-size="13" font-weight="700" fill="#1f2937">Plus5 E62 FIR29 FastRound</text>
<rect x="879.3" y="181.3" width="10.4" height="313.7" rx="3" fill="#1f77b4"/>
<text x="884.5" y="175.3" text-anchor="middle" font-family="Arial, sans-serif" font-size="11" font-weight="400" fill="#1f2937">0.125</text>
<rect x="892.0" y="337.4" width="10.4" height="157.6" rx="3" fill="#2ca02c"/>
<text x="897.2" y="331.4" text-anchor="middle" font-family="Arial, sans-serif" font-size="11" font-weight="400" fill="#1f2937">0.055</text>
<rect x="904.7" y="303.9" width="10.4" height="191.1" rx="3" fill="#d62728"/>
<text x="909.9" y="297.9" text-anchor="middle" font-family="Arial, sans-serif" font-size="11" font-weight="400" fill="#1f2937">0.07</text>
<text x="956.2" y="520.0" text-anchor="middle" font-family="Arial, sans-serif" font-size="13" font-weight="700" fill="#1f2937">Plus5 FastRound+AccStart</text>
<rect x="935.2" y="179.1" width="10.4" height="315.9" rx="3" fill="#1f77b4"/>
<text x="940.4" y="173.1" text-anchor="middle" font-family="Arial, sans-serif" font-size="11" font-weight="400" fill="#1f2937">0.126</text>
<rect x="947.9" y="335.2" width="10.4" height="159.8" rx="3" fill="#2ca02c"/>
<text x="953.1" y="329.2" text-anchor="middle" font-family="Arial, sans-serif" font-size="11" font-weight="400" fill="#1f2937">0.056</text>
<rect x="960.6" y="303.9" width="10.4" height="191.1" rx="3" fill="#d62728"/>
<text x="965.8" y="297.9" text-anchor="middle" font-family="Arial, sans-serif" font-size="11" font-weight="400" fill="#1f2937">0.07</text>
<text x="1012.1" y="520.0" text-anchor="middle" font-family="Arial, sans-serif" font-size="13" font-weight="700" fill="#1f2937">Plus5 AlwaysOn+AccStart</text>
<rect x="991.1" y="181.3" width="10.4" height="313.7" rx="3" fill="#1f77b4"/>
<text x="996.3" y="175.3" text-anchor="middle" font-family="Arial, sans-serif" font-size="11" font-weight="400" fill="#1f2937">0.125</text>
<rect x="1003.8" y="337.4" width="10.4" height="157.6" rx="3" fill="#2ca02c"/>
<text x="1009.0" y="331.4" text-anchor="middle" font-family="Arial, sans-serif" font-size="11" font-weight="400" fill="#1f2937">0.055</text>
<rect x="1016.5" y="303.9" width="10.4" height="191.1" rx="3" fill="#d62728"/>
<text x="1021.7" y="297.9" text-anchor="middle" font-family="Arial, sans-serif" font-size="11" font-weight="400" fill="#1f2937">0.07</text>
<rect x="110" y="542" width="15" height="15" fill="#1f77b4"/>
<text x="132.0" y="555.0" text-anchor="start" font-family="Arial, sans-serif" font-size="13" font-weight="400" fill="#1f2937">Total W</text>
<rect x="255" y="542" width="15" height="15" fill="#2ca02c"/>
<text x="277.0" y="555.0" text-anchor="start" font-family="Arial, sans-serif" font-size="13" font-weight="400" fill="#1f2937">Dynamic W</text>
<rect x="400" y="542" width="15" height="15" fill="#d62728"/>
<text x="422.0" y="555.0" text-anchor="start" font-family="Arial, sans-serif" font-size="13" font-weight="400" fill="#1f2937">Static W</text>
<text x="565.0" y="582.0" text-anchor="middle" font-family="Arial, sans-serif" font-size="15" font-weight="700" fill="#1f2937">Design variant</text>
<text x="24" y="285.0" text-anchor="middle" font-family="Arial, sans-serif" font-size="15" font-weight="700" fill="#1f2937" transform="rotate(-90 24 285.0)">Power (W)</text>
</svg>
