<svg xmlns="http://www.w3.org/2000/svg" width="1080" height="760" viewBox="0 0 1080 760">
<rect width="100%" height="100%" fill="#ffffff"/>
<text x="540.0" y="36.0" text-anchor="middle" font-family="Arial, sans-serif" font-size="22" font-weight="700" fill="#1f2937">Post-Route Power by Architecture</text>
<text x="540.0" y="58.0" text-anchor="middle" font-family="Arial, sans-serif" font-size="13" font-weight="400" fill="#4b5563">Designs are indexed below to keep the x-axis readable.</text>
<line x1="90" y1="500" x2="1040" y2="500" stroke="#2e3440" stroke-width="1.5"/>
<line x1="90" y1="75" x2="90" y2="500" stroke="#2e3440" stroke-width="1.5"/>
<line x1="90" y1="500.0" x2="1040" y2="500.0" stroke="#d7dde8" stroke-width="1"/>
<text x="78.0" y="505.0" text-anchor="end" font-family="Arial, sans-serif" font-size="12" font-weight="400" fill="#1f2937">-0.0157</text>
<line x1="90" y1="415.0" x2="1040" y2="415.0" stroke="#d7dde8" stroke-width="1"/>
<text x="78.0" y="420.0" text-anchor="end" font-family="Arial, sans-serif" font-size="12" font-weight="400" fill="#1f2937">0.022</text>
<line x1="90" y1="330.0" x2="1040" y2="330.0" stroke="#d7dde8" stroke-width="1"/>
<text x="78.0" y="335.0" text-anchor="end" font-family="Arial, sans-serif" font-size="12" font-weight="400" fill="#1f2937">0.0597</text>
<line x1="90" y1="245.0" x2="1040" y2="245.0" stroke="#d7dde8" stroke-width="1"/>
<text x="78.0" y="250.0" text-anchor="end" font-family="Arial, sans-serif" font-size="12" font-weight="400" fill="#1f2937">0.0973</text>
<line x1="90" y1="160.0" x2="1040" y2="160.0" stroke="#d7dde8" stroke-width="1"/>
<text x="78.0" y="165.0" text-anchor="end" font-family="Arial, sans-serif" font-size="12" font-weight="400" fill="#1f2937">0.135</text>
<line x1="90" y1="75.0" x2="1040" y2="75.0" stroke="#d7dde8" stroke-width="1"/>
<text x="78.0" y="80.0" text-anchor="end" font-family="Arial, sans-serif" font-size="12" font-weight="400" fill="#1f2937">0.173</text>
<text x="117.9" y="522.0" text-anchor="middle" font-family="Arial, sans-serif" font-size="11" font-weight="700" fill="#1f2937">D01</text>
<rect x="97.0" y="110.4" width="10.4" height="389.6" rx="3" fill="#1f77b4"/>
<text x="102.2" y="104.4" text-anchor="middle" font-family="Arial, sans-serif" font-size="11" font-weight="400" fill="#1f2937">0.157</text>
<rect x="109.7" y="268.3" width="10.4" height="231.7" rx="3" fill="#2ca02c"/>
<text x="114.9" y="262.3" text-anchor="middle" font-family="Arial, sans-serif" font-size="11" font-weight="400" fill="#1f2937">0.087</text>
<rect x="122.4" y="306.7" width="10.4" height="193.3" rx="3" fill="#d62728"/>
<text x="127.6" y="300.7" text-anchor="middle" font-family="Arial, sans-serif" font-size="11" font-weight="400" fill="#1f2937">0.07</text>
<text x="173.8" y="522.0" text-anchor="middle" font-family="Arial, sans-serif" font-size="11" font-weight="700" fill="#1f2937">D02</text>
<rect x="152.9" y="124.0" width="10.4" height="376.0" rx="3" fill="#1f77b4"/>
<text x="158.1" y="118.0" text-anchor="middle" font-family="Arial, sans-serif" font-size="11" font-weight="400" fill="#1f2937">0.151</text>
<rect x="165.6" y="281.9" width="10.4" height="218.1" rx="3" fill="#2ca02c"/>
<text x="170.8" y="275.9" text-anchor="middle" font-family="Arial, sans-serif" font-size="11" font-weight="400" fill="#1f2937">0.081</text>
<rect x="178.3" y="306.7" width="10.4" height="193.3" rx="3" fill="#d62728"/>
<text x="183.5" y="300.7" text-anchor="middle" font-family="Arial, sans-serif" font-size="11" font-weight="400" fill="#1f2937">0.07</text>
<text x="229.7" y="522.0" text-anchor="middle" font-family="Arial, sans-serif" font-size="11" font-weight="700" fill="#1f2937">D03</text>
<rect x="208.8" y="133.0" width="10.4" height="367.0" rx="3" fill="#1f77b4"/>
<text x="214.0" y="127.0" text-anchor="middle" font-family="Arial, sans-serif" font-size="11" font-weight="400" fill="#1f2937">0.147</text>
<rect x="221.5" y="293.1" width="10.4" height="206.9" rx="3" fill="#2ca02c"/>
<text x="226.7" y="287.1" text-anchor="middle" font-family="Arial, sans-serif" font-size="11" font-weight="400" fill="#1f2937">0.076</text>
<rect x="234.2" y="306.7" width="10.4" height="193.3" rx="3" fill="#d62728"/>
<text x="239.4" y="300.7" text-anchor="middle" font-family="Arial, sans-serif" font-size="11" font-weight="400" fill="#1f2937">0.07</text>
<text x="285.6" y="522.0" text-anchor="middle" font-family="Arial, sans-serif" font-size="11" font-weight="700" fill="#1f2937">D04</text>
<rect x="264.6" y="128.5" width="10.4" height="371.5" rx="3" fill="#1f77b4"/>
<text x="269.8" y="122.5" text-anchor="middle" font-family="Arial, sans-serif" font-size="11" font-weight="400" fill="#1f2937">0.149</text>
<rect x="277.3" y="288.6" width="10.4" height="211.4" rx="3" fill="#2ca02c"/>
<text x="282.5" y="282.6" text-anchor="middle" font-family="Arial, sans-serif" font-size="11" font-weight="400" fill="#1f2937">0.078</text>
<rect x="290.0" y="306.7" width="10.4" height="193.3" rx="3" fill="#d62728"/>
<text x="295.2" y="300.7" text-anchor="middle" font-family="Arial, sans-serif" font-size="11" font-weight="400" fill="#1f2937">0.07</text>
<text x="341.5" y="522.0" text-anchor="middle" font-family="Arial, sans-serif" font-size="11" font-weight="700" fill="#1f2937">D05</text>
<rect x="320.5" y="128.5" width="10.4" height="371.5" rx="3" fill="#1f77b4"/>
<text x="325.7" y="122.5" text-anchor="middle" font-family="Arial, sans-serif" font-size="11" font-weight="400" fill="#1f2937">0.149</text>
<rect x="333.2" y="286.4" width="10.4" height="213.6" rx="3" fill="#2ca02c"/>
<text x="338.4" y="280.4" text-anchor="middle" font-family="Arial, sans-serif" font-size="11" font-weight="400" fill="#1f2937">0.079</text>
<rect x="345.9" y="306.7" width="10.4" height="193.3" rx="3" fill="#d62728"/>
<text x="351.1" y="300.7" text-anchor="middle" font-family="Arial, sans-serif" font-size="11" font-weight="400" fill="#1f2937">0.07</text>
<text x="397.4" y="522.0" text-anchor="middle" font-family="Arial, sans-serif" font-size="11" font-weight="700" fill="#1f2937">D06</text>
<rect x="376.4" y="130.7" width="10.4" height="369.3" rx="3" fill="#1f77b4"/>
<text x="381.6" y="124.7" text-anchor="middle" font-family="Arial, sans-serif" font-size="11" font-weight="400" fill="#1f2937">0.148</text>
<rect x="389.1" y="288.6" width="10.4" height="211.4" rx="3" fill="#2ca02c"/>
<text x="394.3" y="282.6" text-anchor="middle" font-family="Arial, sans-serif" font-size="11" font-weight="400" fill="#1f2937">0.078</text>
<rect x="401.8" y="306.7" width="10.4" height="193.3" rx="3" fill="#d62728"/>
<text x="407.0" y="300.7" text-anchor="middle" font-family="Arial, sans-serif" font-size="11" font-weight="400" fill="#1f2937">0.07</text>
<text x="453.2" y="522.0" text-anchor="middle" font-family="Arial, sans-serif" font-size="11" font-weight="700" fill="#1f2937">D07</text>
<rect x="432.3" y="128.5" width="10.4" height="371.5" rx="3" fill="#1f77b4"/>
<text x="437.5" y="122.5" text-anchor="middle" font-family="Arial, sans-serif" font-size="11" font-weight="400" fill="#1f2937">0.149</text>
<rect x="445.0" y="286.4" width="10.4" height="213.6" rx="3" fill="#2ca02c"/>
<text x="450.2" y="280.4" text-anchor="middle" font-family="Arial, sans-serif" font-size="11" font-weight="400" fill="#1f2937">0.079</text>
<rect x="457.7" y="306.7" width="10.4" height="193.3" rx="3" fill="#d62728"/>
<text x="462.9" y="300.7" text-anchor="middle" font-family="Arial, sans-serif" font-size="11" font-weight="400" fill="#1f2937">0.07</text>
<text x="509.1" y="522.0" text-anchor="middle" font-family="Arial, sans-serif" font-size="11" font-weight="700" fill="#1f2937">D08</text>
<rect x="488.2" y="130.7" width="10.4" height="369.3" rx="3" fill="#1f77b4"/>
<text x="493.4" y="124.7" text-anchor="middle" font-family="Arial, sans-serif" font-size="11" font-weight="400" fill="#1f2937">0.148</text>
<rect x="500.9" y="290.9" width="10.4" height="209.1" rx="3" fill="#2ca02c"/>
<text x="506.1" y="284.9" text-anchor="middle" font-family="Arial, sans-serif" font-size="11" font-weight="400" fill="#1f2937">0.077</text>
<rect x="513.6" y="306.7" width="10.4" height="193.3" rx="3" fill="#d62728"/>
<text x="518.8" y="300.7" text-anchor="middle" font-family="Arial, sans-serif" font-size="11" font-weight="400" fill="#1f2937">0.07</text>
<text x="565.0" y="522.0" text-anchor="middle" font-family="Arial, sans-serif" font-size="11" font-weight="700" fill="#1f2937">D09</text>
<rect x="544.0" y="121.7" width="10.4" height="378.3" rx="3" fill="#1f77b4"/>
<text x="549.3" y="115.7" text-anchor="middle" font-family="Arial, sans-serif" font-size="11" font-weight="400" fill="#1f2937">0.152</text>
<rect x="556.7" y="281.9" width="10.4" height="218.1" rx="3" fill="#2ca02c"/>
<text x="562.0" y="275.9" text-anchor="middle" font-family="Arial, sans-serif" font-size="11" font-weight="400" fill="#1f2937">0.081</text>
<rect x="569.4" y="306.7" width="10.4" height="193.3" rx="3" fill="#d62728"/>
<text x="574.7" y="300.7" text-anchor="middle" font-family="Arial, sans-serif" font-size="11" font-weight="400" fill="#1f2937">0.07</text>
<text x="620.9" y="522.0" text-anchor="middle" font-family="Arial, sans-serif" font-size="11" font-weight="700" fill="#1f2937">D10</text>
<rect x="599.9" y="121.7" width="10.4" height="378.3" rx="3" fill="#1f77b4"/>
<text x="605.1" y="115.7" text-anchor="middle" font-family="Arial, sans-serif" font-size="11" font-weight="400" fill="#1f2937">0.152</text>
<rect x="612.6" y="281.9" width="10.4" height="218.1" rx="3" fill="#2ca02c"/>
<text x="617.8" y="275.9" text-anchor="middle" font-family="Arial, sans-serif" font-size="11" font-weight="400" fill="#1f2937">0.081</text>
<rect x="625.3" y="306.7" width="10.4" height="193.3" rx="3" fill="#d62728"/>
<text x="630.5" y="300.7" text-anchor="middle" font-family="Arial, sans-serif" font-size="11" font-weight="400" fill="#1f2937">0.07</text>
<text x="676.8" y="522.0" text-anchor="middle" font-family="Arial, sans-serif" font-size="11" font-weight="700" fill="#1f2937">D11</text>
<rect x="655.8" y="126.2" width="10.4" height="373.8" rx="3" fill="#1f77b4"/>
<text x="661.0" y="120.2" text-anchor="middle" font-family="Arial, sans-serif" font-size="11" font-weight="400" fill="#1f2937">0.15</text>
<rect x="668.5" y="284.1" width="10.4" height="215.9" rx="3" fill="#2ca02c"/>
<text x="673.7" y="278.1" text-anchor="middle" font-family="Arial, sans-serif" font-size="11" font-weight="400" fill="#1f2937">0.08</text>
<rect x="681.2" y="306.7" width="10.4" height="193.3" rx="3" fill="#d62728"/>
<text x="686.4" y="300.7" text-anchor="middle" font-family="Arial, sans-serif" font-size="11" font-weight="400" fill="#1f2937">0.07</text>
<text x="732.6" y="522.0" text-anchor="middle" font-family="Arial, sans-serif" font-size="11" font-weight="700" fill="#1f2937">D12</text>
<rect x="711.7" y="146.5" width="10.4" height="353.5" rx="3" fill="#1f77b4"/>
<text x="716.9" y="140.5" text-anchor="middle" font-family="Arial, sans-serif" font-size="11" font-weight="400" fill="#1f2937">0.141</text>
<rect x="724.4" y="306.7" width="10.4" height="193.3" rx="3" fill="#2ca02c"/>
<text x="729.6" y="300.7" text-anchor="middle" font-family="Arial, sans-serif" font-size="11" font-weight="400" fill="#1f2937">0.07</text>
<rect x="737.1" y="306.7" width="10.4" height="193.3" rx="3" fill="#d62728"/>
<text x="742.3" y="300.7" text-anchor="middle" font-family="Arial, sans-serif" font-size="11" font-weight="400" fill="#1f2937">0.07</text>
<text x="788.5" y="522.0" text-anchor="middle" font-family="Arial, sans-serif" font-size="11" font-weight="700" fill="#1f2937">D13</text>
<rect x="767.6" y="148.8" width="10.4" height="351.2" rx="3" fill="#1f77b4"/>
<text x="772.8" y="142.8" text-anchor="middle" font-family="Arial, sans-serif" font-size="11" font-weight="400" fill="#1f2937">0.14</text>
<rect x="780.3" y="306.7" width="10.4" height="193.3" rx="3" fill="#2ca02c"/>
<text x="785.5" y="300.7" text-anchor="middle" font-family="Arial, sans-serif" font-size="11" font-weight="400" fill="#1f2937">0.07</text>
<rect x="793.0" y="306.7" width="10.4" height="193.3" rx="3" fill="#d62728"/>
<text x="798.2" y="300.7" text-anchor="middle" font-family="Arial, sans-serif" font-size="11" font-weight="400" fill="#1f2937">0.07</text>
<text x="844.4" y="522.0" text-anchor="middle" font-family="Arial, sans-serif" font-size="11" font-weight="700" fill="#1f2937">D14</text>
<rect x="823.5" y="180.3" width="10.4" height="319.7" rx="3" fill="#1f77b4"/>
<text x="828.7" y="174.3" text-anchor="middle" font-family="Arial, sans-serif" font-size="11" font-weight="400" fill="#1f2937">0.126</text>
<rect x="836.2" y="338.3" width="10.4" height="161.7" rx="3" fill="#2ca02c"/>
<text x="841.4" y="332.3" text-anchor="middle" font-family="Arial, sans-serif" font-size="11" font-weight="400" fill="#1f2937">0.056</text>
<rect x="848.9" y="306.7" width="10.4" height="193.3" rx="3" fill="#d62728"/>
<text x="854.1" y="300.7" text-anchor="middle" font-family="Arial, sans-serif" font-size="11" font-weight="400" fill="#1f2937">0.07</text>
<text x="900.3" y="522.0" text-anchor="middle" font-family="Arial, sans-serif" font-size="11" font-weight="700" fill="#1f2937">D15</text>
<rect x="879.3" y="182.6" width="10.4" height="317.4" rx="3" fill="#1f77b4"/>
<text x="884.5" y="176.6" text-anchor="middle" font-family="Arial, sans-serif" font-size="11" font-weight="400" fill="#1f2937">0.125</text>
<rect x="892.0" y="340.5" width="10.4" height="159.5" rx="3" fill="#2ca02c"/>
<text x="897.2" y="334.5" text-anchor="middle" font-family="Arial, sans-serif" font-size="11" font-weight="400" fill="#1f2937">0.055</text>
<rect x="904.7" y="306.7" width="10.4" height="193.3" rx="3" fill="#d62728"/>
<text x="909.9" y="300.7" text-anchor="middle" font-family="Arial, sans-serif" font-size="11" font-weight="400" fill="#1f2937">0.07</text>
<text x="956.2" y="522.0" text-anchor="middle" font-family="Arial, sans-serif" font-size="11" font-weight="700" fill="#1f2937">D16</text>
<rect x="935.2" y="180.3" width="10.4" height="319.7" rx="3" fill="#1f77b4"/>
<text x="940.4" y="174.3" text-anchor="middle" font-family="Arial, sans-serif" font-size="11" font-weight="400" fill="#1f2937">0.126</text>
<rect x="947.9" y="338.3" width="10.4" height="161.7" rx="3" fill="#2ca02c"/>
<text x="953.1" y="332.3" text-anchor="middle" font-family="Arial, sans-serif" font-size="11" font-weight="400" fill="#1f2937">0.056</text>
<rect x="960.6" y="306.7" width="10.4" height="193.3" rx="3" fill="#d62728"/>
<text x="965.8" y="300.7" text-anchor="middle" font-family="Arial, sans-serif" font-size="11" font-weight="400" fill="#1f2937">0.07</text>
<text x="1012.1" y="522.0" text-anchor="middle" font-family="Arial, sans-serif" font-size="11" font-weight="700" fill="#1f2937">D17</text>
<rect x="991.1" y="182.6" width="10.4" height="317.4" rx="3" fill="#1f77b4"/>
<text x="996.3" y="176.6" text-anchor="middle" font-family="Arial, sans-serif" font-size="11" font-weight="400" fill="#1f2937">0.125</text>
<rect x="1003.8" y="340.5" width="10.4" height="159.5" rx="3" fill="#2ca02c"/>
<text x="1009.0" y="334.5" text-anchor="middle" font-family="Arial, sans-serif" font-size="11" font-weight="400" fill="#1f2937">0.055</text>
<rect x="1016.5" y="306.7" width="10.4" height="193.3" rx="3" fill="#d62728"/>
<text x="1021.7" y="300.7" text-anchor="middle" font-family="Arial, sans-serif" font-size="11" font-weight="400" fill="#1f2937">0.07</text>
<rect x="110" y="690" width="15" height="15" fill="#1f77b4"/>
<text x="132.0" y="703.0" text-anchor="start" font-family="Arial, sans-serif" font-size="13" font-weight="400" fill="#1f2937">Total W</text>
<rect x="255" y="690" width="15" height="15" fill="#2ca02c"/>
<text x="277.0" y="703.0" text-anchor="start" font-family="Arial, sans-serif" font-size="13" font-weight="400" fill="#1f2937">Dynamic W</text>
<rect x="400" y="690" width="15" height="15" fill="#d62728"/>
<text x="422.0" y="703.0" text-anchor="start" font-family="Arial, sans-serif" font-size="13" font-weight="400" fill="#1f2937">Static W</text>
<text x="90.0" y="548.0" text-anchor="start" font-family="Arial, sans-serif" font-size="10" font-weight="700" fill="#1f2937">D01</text>
<text x="118.0" y="548.0" text-anchor="start" font-family="Arial, sans-serif" font-size="10" font-weight="400" fill="#4b5563">Baseline</text>
<text x="90.0" y="566.0" text-anchor="start" font-family="Arial, sans-serif" font-size="10" font-weight="700" fill="#1f2937">D02</text>
<text x="118.0" y="566.0" text-anchor="start" font-family="Arial, sans-serif" font-size="10" font-weight="400" fill="#4b5563">Pipelined</text>
<text x="90.0" y="584.0" text-anchor="start" font-family="Arial, sans-serif" font-size="10" font-weight="700" fill="#1f2937">D03</text>
<text x="118.0" y="584.0" text-anchor="start" font-family="Arial, sans-serif" font-size="10" font-weight="400" fill="#4b5563">Plus1</text>
<text x="90.0" y="602.0" text-anchor="start" font-family="Arial, sans-serif" font-size="10" font-weight="700" fill="#1f2937">D04</text>
<text x="118.0" y="602.0" text-anchor="start" font-family="Arial, sans-serif" font-size="10" font-weight="400" fill="#4b5563">Plus5</text>
<text x="90.0" y="620.0" text-anchor="start" font-family="Arial, sans-serif" font-size="10" font-weight="700" fill="#1f2937">D05</text>
<text x="118.0" y="620.0" text-anchor="start" font-family="Arial, sans-serif" font-size="10" font-weight="400" fill="#4b5563">Plus5 Tracker</text>
<text x="90.0" y="638.0" text-anchor="start" font-family="Arial, sans-serif" font-size="10" font-weight="700" fill="#1f2937">D06</text>
<text x="118.0" y="638.0" text-anchor="start" font-family="Arial, sans-serif" font-size="10" font-weight="400" fill="#4b5563">Plus5 FIR Out</text>
<text x="415.0" y="548.0" text-anchor="start" font-family="Arial, sans-serif" font-size="10" font-weight="700" fill="#1f2937">D07</text>
<text x="443.0" y="548.0" text-anchor="start" font-family="Arial, sans-serif" font-size="10" font-weight="400" fill="#4b5563">Plus5 FIR+Tracker</text>
<text x="415.0" y="566.0" text-anchor="start" font-family="Arial, sans-serif" font-size="10" font-weight="700" fill="#1f2937">D08</text>
<text x="443.0" y="566.0" text-anchor="start" font-family="Arial, sans-serif" font-size="10" font-weight="400" fill="#4b5563">Plus5 FIR+AccBuf</text>
<text x="415.0" y="584.0" text-anchor="start" font-family="Arial, sans-serif" font-size="10" font-weight="700" fill="#1f2937">D09</text>
<text x="443.0" y="584.0" text-anchor="start" font-family="Arial, sans-serif" font-size="10" font-weight="400" fill="#4b5563">Plus5 AccBuf+MagPipe</text>
<text x="415.0" y="602.0" text-anchor="start" font-family="Arial, sans-serif" font-size="10" font-weight="700" fill="#1f2937">D10</text>
<text x="443.0" y="602.0" text-anchor="start" font-family="Arial, sans-serif" font-size="10" font-weight="400" fill="#4b5563">Plus5 AccBuf+TrackCmp</text>
<text x="415.0" y="620.0" text-anchor="start" font-family="Arial, sans-serif" font-size="10" font-weight="700" fill="#1f2937">D11</text>
<text x="443.0" y="620.0" text-anchor="start" font-family="Arial, sans-serif" font-size="10" font-weight="400" fill="#4b5563">Plus5 AccBuf+Fanout</text>
<text x="415.0" y="638.0" text-anchor="start" font-family="Arial, sans-serif" font-size="10" font-weight="700" fill="#1f2937">D12</text>
<text x="443.0" y="638.0" text-anchor="start" font-family="Arial, sans-serif" font-size="10" font-weight="400" fill="#4b5563">Plus5 AccBuf+Energy64</text>
<text x="740.0" y="548.0" text-anchor="start" font-family="Arial, sans-serif" font-size="10" font-weight="700" fill="#1f2937">D13</text>
<text x="768.0" y="548.0" text-anchor="start" font-family="Arial, sans-serif" font-size="10" font-weight="400" fill="#4b5563">Plus5 AccBuf+Energy62</text>
<text x="740.0" y="566.0" text-anchor="start" font-family="Arial, sans-serif" font-size="10" font-weight="700" fill="#1f2937">D14</text>
<text x="768.0" y="566.0" text-anchor="start" font-family="Arial, sans-serif" font-size="10" font-weight="400" fill="#4b5563">Plus5 AccBuf+E62 FIR29</text>
<text x="740.0" y="584.0" text-anchor="start" font-family="Arial, sans-serif" font-size="10" font-weight="700" fill="#1f2937">D15</text>
<text x="768.0" y="584.0" text-anchor="start" font-family="Arial, sans-serif" font-size="10" font-weight="400" fill="#4b5563">Plus5 E62 FIR29 FastRound</text>
<text x="740.0" y="602.0" text-anchor="start" font-family="Arial, sans-serif" font-size="10" font-weight="700" fill="#1f2937">D16</text>
<text x="768.0" y="602.0" text-anchor="start" font-family="Arial, sans-serif" font-size="10" font-weight="400" fill="#4b5563">Plus5 FastRound+AccStart</text>
<text x="740.0" y="620.0" text-anchor="start" font-family="Arial, sans-serif" font-size="10" font-weight="700" fill="#1f2937">D17</text>
<text x="768.0" y="620.0" text-anchor="start" font-family="Arial, sans-serif" font-size="10" font-weight="400" fill="#4b5563">Plus5 AlwaysOn+AccStart</text>
<text x="565.0" y="742.0" text-anchor="middle" font-family="Arial, sans-serif" font-size="15" font-weight="700" fill="#1f2937">Design variant</text>
<text x="24" y="287.5" text-anchor="middle" font-family="Arial, sans-serif" font-size="15" font-weight="700" fill="#1f2937" transform="rotate(-90 24 287.5)">Power (W)</text>
</svg>
