<svg xmlns="http://www.w3.org/2000/svg" width="1120" height="600" viewBox="0 0 1120 600">
<rect width="100%" height="100%" fill="#ffffff"/>
<text x="560.0" y="36.0" text-anchor="middle" font-family="Arial, sans-serif" font-size="22" font-weight="700" fill="#1f2937">Fmax vs Latency</text>
<line x1="90" y1="495" x2="990" y2="495" stroke="#2e3440" stroke-width="1.5"/>
<line x1="90" y1="75" x2="90" y2="495" stroke="#2e3440" stroke-width="1.5"/>
<text x="560.0" y="58.0" text-anchor="middle" font-family="Arial, sans-serif" font-size="13" font-weight="400" fill="#4b5563">All variants are plotted; only major decision points are labeled for readability.</text>
<line x1="90" y1="495.0" x2="990" y2="495.0" stroke="#d7dde8" stroke-width="1"/>
<text x="78.0" y="500.0" text-anchor="end" font-family="Arial, sans-serif" font-size="12" font-weight="400" fill="#1f2937">102.5</text>
<line x1="90" y1="411.0" x2="990" y2="411.0" stroke="#d7dde8" stroke-width="1"/>
<text x="78.0" y="416.0" text-anchor="end" font-family="Arial, sans-serif" font-size="12" font-weight="400" fill="#1f2937">116.8</text>
<line x1="90" y1="327.0" x2="990" y2="327.0" stroke="#d7dde8" stroke-width="1"/>
<text x="78.0" y="332.0" text-anchor="end" font-family="Arial, sans-serif" font-size="12" font-weight="400" fill="#1f2937">131.2</text>
<line x1="90" y1="243.0" x2="990" y2="243.0" stroke="#d7dde8" stroke-width="1"/>
<text x="78.0" y="248.0" text-anchor="end" font-family="Arial, sans-serif" font-size="12" font-weight="400" fill="#1f2937">145.5</text>
<line x1="90" y1="159.0" x2="990" y2="159.0" stroke="#d7dde8" stroke-width="1"/>
<text x="78.0" y="164.0" text-anchor="end" font-family="Arial, sans-serif" font-size="12" font-weight="400" fill="#1f2937">159.8</text>
<line x1="90" y1="75.0" x2="990" y2="75.0" stroke="#d7dde8" stroke-width="1"/>
<text x="78.0" y="80.0" text-anchor="end" font-family="Arial, sans-serif" font-size="12" font-weight="400" fill="#1f2937">174.2</text>
<text x="90.0" y="519.0" text-anchor="middle" font-family="Arial, sans-serif" font-size="12" font-weight="400" fill="#1f2937">-1.6</text>
<text x="270.0" y="519.0" text-anchor="middle" font-family="Arial, sans-serif" font-size="12" font-weight="400" fill="#1f2937">3.0</text>
<text x="450.0" y="519.0" text-anchor="middle" font-family="Arial, sans-serif" font-size="12" font-weight="400" fill="#1f2937">7.7</text>
<text x="630.0" y="519.0" text-anchor="middle" font-family="Arial, sans-serif" font-size="12" font-weight="400" fill="#1f2937">12.3</text>
<text x="810.0" y="519.0" text-anchor="middle" font-family="Arial, sans-serif" font-size="12" font-weight="400" fill="#1f2937">17.0</text>
<text x="990.0" y="519.0" text-anchor="middle" font-family="Arial, sans-serif" font-size="12" font-weight="400" fill="#1f2937">21.6</text>
<text x="540.0" y="572.0" text-anchor="middle" font-family="Arial, sans-serif" font-size="15" font-weight="700" fill="#1f2937">Latency after final sample (cycles)</text>
<text x="24" y="285.0" text-anchor="middle" font-family="Arial, sans-serif" font-size="15" font-weight="700" fill="#1f2937" transform="rotate(-90 24 285.0)">Derived post-route Fmax (MHz)</text>
<polyline points="578.8,466.0 617.6,412.8 772.8,376.2 811.6,391.6 811.6,362.9 850.3,391.7 850.3,339.1 889.1,348.6 927.9,374.7 811.6,350.5 811.6,309.3 811.6,309.2 811.6,259.2 811.6,137.4 811.6,409.0 811.6,104.0" fill="none" stroke="#6f42c1" stroke-width="3"/>
<circle cx="578.8" cy="466.0" r="7" fill="#1f77b4" stroke="#ffffff" stroke-width="2" opacity="1"/>
<line x1="578.8" y1="466.0" x2="578.8" y2="443.0" stroke="#1f77b4" stroke-width="1" opacity="0.55"/>
<rect x="524.4" y="433.0" width="108.8" height="19" rx="3" fill="#ffffff" opacity="0.86"/>
<text x="578.8" y="448.0" text-anchor="middle" font-family="Arial, sans-serif" font-size="12" font-weight="700" fill="#1f2937">Pipelined (107.4)</text>
<circle cx="617.6" cy="412.8" r="7" fill="#2ca02c" stroke="#ffffff" stroke-width="2" opacity="1"/>
<line x1="617.6" y1="412.8" x2="617.6" y2="389.8" stroke="#2ca02c" stroke-width="1" opacity="0.55"/>
<rect x="576.0" y="379.8" width="83.2" height="19" rx="3" fill="#ffffff" opacity="0.86"/>
<text x="617.6" y="394.8" text-anchor="middle" font-family="Arial, sans-serif" font-size="12" font-weight="700" fill="#1f2937">Plus1 (116.5)</text>
<circle cx="772.8" cy="376.2" r="7" fill="#d62728" stroke="#ffffff" stroke-width="2" opacity="1"/>
<line x1="772.8" y1="376.2" x2="730.8" y2="347.2" stroke="#d62728" stroke-width="1" opacity="0.55"/>
<rect x="651.6" y="337.2" width="83.2" height="19" rx="3" fill="#ffffff" opacity="0.86"/>
<text x="730.8" y="352.2" text-anchor="end" font-family="Arial, sans-serif" font-size="12" font-weight="700" fill="#1f2937">Plus5 (122.8)</text>
<circle cx="811.6" cy="391.6" r="4" fill="#9467bd" stroke="#ffffff" stroke-width="2" opacity="0.45"/>
<circle cx="811.6" cy="362.9" r="4" fill="#ff7f0e" stroke="#ffffff" stroke-width="2" opacity="0.45"/>
<circle cx="850.3" cy="391.7" r="4" fill="#17becf" stroke="#ffffff" stroke-width="2" opacity="0.45"/>
<circle cx="850.3" cy="339.1" r="7" fill="#8c564b" stroke="#ffffff" stroke-width="2" opacity="1"/>
<line x1="850.3" y1="339.1" x2="898.3" y2="362.1" stroke="#8c564b" stroke-width="1" opacity="0.55"/>
<rect x="894.3" y="352.1" width="153.6" height="19" rx="3" fill="#ffffff" opacity="0.86"/>
<text x="898.3" y="367.1" text-anchor="start" font-family="Arial, sans-serif" font-size="12" font-weight="700" fill="#1f2937">Plus5 FIR+AccBuf (129.1)</text>
<circle cx="889.1" cy="348.6" r="4" fill="#e377c2" stroke="#ffffff" stroke-width="2" opacity="0.45"/>
<circle cx="927.9" cy="374.7" r="4" fill="#bcbd22" stroke="#ffffff" stroke-width="2" opacity="0.45"/>
<circle cx="811.6" cy="350.5" r="4" fill="#4c78a8" stroke="#ffffff" stroke-width="2" opacity="0.45"/>
<circle cx="811.6" cy="309.3" r="7" fill="#59a14f" stroke="#ffffff" stroke-width="2" opacity="1"/>
<line x1="811.6" y1="309.3" x2="735.6" y2="326.3" stroke="#59a14f" stroke-width="1" opacity="0.55"/>
<rect x="554.0" y="316.3" width="185.6" height="19" rx="3" fill="#ffffff" opacity="0.86"/>
<text x="735.6" y="331.3" text-anchor="end" font-family="Arial, sans-serif" font-size="12" font-weight="700" fill="#1f2937">Plus5 AccBuf+Energy64 (134.2)</text>
<circle cx="811.6" cy="309.2" r="4" fill="#1b9e77" stroke="#ffffff" stroke-width="2" opacity="0.45"/>
<circle cx="811.6" cy="259.2" r="7" fill="#117733" stroke="#ffffff" stroke-width="2" opacity="1"/>
<line x1="811.6" y1="259.2" x2="729.6" y2="232.2" stroke="#117733" stroke-width="1" opacity="0.55"/>
<rect x="541.6" y="222.2" width="192.0" height="19" rx="3" fill="#ffffff" opacity="0.86"/>
<text x="729.6" y="237.2" text-anchor="end" font-family="Arial, sans-serif" font-size="12" font-weight="700" fill="#1f2937">Plus5 AccBuf+E62 FIR29 (142.7)</text>
<circle cx="811.6" cy="137.4" r="7" fill="#004d40" stroke="#ffffff" stroke-width="2" opacity="1"/>
<line x1="811.6" y1="137.4" x2="897.6" y2="142.4" stroke="#004d40" stroke-width="1" opacity="0.55"/>
<rect x="893.6" y="132.4" width="211.2" height="19" rx="3" fill="#ffffff" opacity="0.86"/>
<text x="897.6" y="147.4" text-anchor="start" font-family="Arial, sans-serif" font-size="12" font-weight="700" fill="#1f2937">Plus5 E62 FIR29 FastRound (163.5)</text>
<circle cx="811.6" cy="409.0" r="7" fill="#a6761d" stroke="#ffffff" stroke-width="2" opacity="1"/>
<line x1="811.6" y1="409.0" x2="907.6" y2="440.0" stroke="#a6761d" stroke-width="1" opacity="0.55"/>
<rect x="903.6" y="430.0" width="204.8" height="19" rx="3" fill="#ffffff" opacity="0.86"/>
<text x="907.6" y="445.0" text-anchor="start" font-family="Arial, sans-serif" font-size="12" font-weight="700" fill="#1f2937">Plus5 FastRound+AccStart (117.2)</text>
<circle cx="811.6" cy="104.0" r="7" fill="#7f3c8d" stroke="#ffffff" stroke-width="2" opacity="1"/>
<line x1="811.6" y1="104.0" x2="899.6" y2="81.0" stroke="#7f3c8d" stroke-width="1" opacity="0.55"/>
<rect x="895.6" y="71.0" width="198.4" height="19" rx="3" fill="#ffffff" opacity="0.86"/>
<text x="899.6" y="86.0" text-anchor="start" font-family="Arial, sans-serif" font-size="12" font-weight="700" fill="#1f2937">Plus5 AlwaysOn+AccStart (169.2)</text>
</svg>
