<svg xmlns="http://www.w3.org/2000/svg" width="1080" height="600" viewBox="0 0 1080 600">
<rect width="100%" height="100%" fill="#ffffff"/>
<text x="540.0" y="36.0" text-anchor="middle" font-family="Arial, sans-serif" font-size="22" font-weight="700" fill="#1f2937">Post-Route Area by Architecture</text>
<line x1="90" y1="495" x2="1040" y2="495" stroke="#2e3440" stroke-width="1.5"/>
<line x1="90" y1="75" x2="90" y2="495" stroke="#2e3440" stroke-width="1.5"/>
<line x1="90" y1="495.0" x2="1040" y2="495.0" stroke="#d7dde8" stroke-width="1"/>
<text x="78.0" y="500.0" text-anchor="end" font-family="Arial, sans-serif" font-size="12" font-weight="400" fill="#1f2937">-264</text>
<line x1="90" y1="411.0" x2="1040" y2="411.0" stroke="#d7dde8" stroke-width="1"/>
<text x="78.0" y="416.0" text-anchor="end" font-family="Arial, sans-serif" font-size="12" font-weight="400" fill="#1f2937">370</text>
<line x1="90" y1="327.0" x2="1040" y2="327.0" stroke="#d7dde8" stroke-width="1"/>
<text x="78.0" y="332.0" text-anchor="end" font-family="Arial, sans-serif" font-size="12" font-weight="400" fill="#1f2937">1.01e+03</text>
<line x1="90" y1="243.0" x2="1040" y2="243.0" stroke="#d7dde8" stroke-width="1"/>
<text x="78.0" y="248.0" text-anchor="end" font-family="Arial, sans-serif" font-size="12" font-weight="400" fill="#1f2937">1.64e+03</text>
<line x1="90" y1="159.0" x2="1040" y2="159.0" stroke="#d7dde8" stroke-width="1"/>
<text x="78.0" y="164.0" text-anchor="end" font-family="Arial, sans-serif" font-size="12" font-weight="400" fill="#1f2937">2.27e+03</text>
<line x1="90" y1="75.0" x2="1040" y2="75.0" stroke="#d7dde8" stroke-width="1"/>
<text x="78.0" y="80.0" text-anchor="end" font-family="Arial, sans-serif" font-size="12" font-weight="400" fill="#1f2937">2.91e+03</text>
<text x="117.9" y="520.0" text-anchor="middle" font-family="Arial, sans-serif" font-size="13" font-weight="700" fill="#1f2937">Baseline</text>
<rect x="99.0" y="251.1" width="13.5" height="243.9" rx="3" fill="#1f77b4"/>
<text x="105.8" y="245.1" text-anchor="middle" font-family="Arial, sans-serif" font-size="11" font-weight="400" fill="#1f2937">1.58e+03</text>
<rect x="115.5" y="286.8" width="13.5" height="208.2" rx="3" fill="#2ca02c"/>
<text x="122.2" y="280.8" text-anchor="middle" font-family="Arial, sans-serif" font-size="11" font-weight="400" fill="#1f2937">1.31e+03</text>
<text x="173.8" y="520.0" text-anchor="middle" font-family="Arial, sans-serif" font-size="13" font-weight="700" fill="#1f2937">Pipelined</text>
<rect x="154.9" y="237.7" width="13.5" height="257.3" rx="3" fill="#1f77b4"/>
<text x="161.7" y="231.7" text-anchor="middle" font-family="Arial, sans-serif" font-size="11" font-weight="400" fill="#1f2937">1.68e+03</text>
<rect x="171.4" y="177.4" width="13.5" height="317.6" rx="3" fill="#2ca02c"/>
<text x="178.1" y="171.4" text-anchor="middle" font-family="Arial, sans-serif" font-size="11" font-weight="400" fill="#1f2937">2.14e+03</text>
<text x="229.7" y="520.0" text-anchor="middle" font-family="Arial, sans-serif" font-size="13" font-weight="700" fill="#1f2937">Plus1</text>
<rect x="210.8" y="237.8" width="13.5" height="257.2" rx="3" fill="#1f77b4"/>
<text x="217.5" y="231.8" text-anchor="middle" font-family="Arial, sans-serif" font-size="11" font-weight="400" fill="#1f2937">1.68e+03</text>
<rect x="227.2" y="191.2" width="13.5" height="303.8" rx="3" fill="#2ca02c"/>
<text x="234.0" y="185.2" text-anchor="middle" font-family="Arial, sans-serif" font-size="11" font-weight="400" fill="#1f2937">2.03e+03</text>
<text x="285.6" y="520.0" text-anchor="middle" font-family="Arial, sans-serif" font-size="13" font-weight="700" fill="#1f2937">Plus5</text>
<rect x="266.7" y="224.9" width="13.5" height="270.1" rx="3" fill="#1f77b4"/>
<text x="273.4" y="218.9" text-anchor="middle" font-family="Arial, sans-serif" font-size="11" font-weight="400" fill="#1f2937">1.78e+03</text>
<rect x="283.1" y="178.0" width="13.5" height="317.0" rx="3" fill="#2ca02c"/>
<text x="289.9" y="172.0" text-anchor="middle" font-family="Arial, sans-serif" font-size="11" font-weight="400" fill="#1f2937">2.13e+03</text>
<text x="341.5" y="520.0" text-anchor="middle" font-family="Arial, sans-serif" font-size="13" font-weight="700" fill="#1f2937">Plus5 Tracker</text>
<rect x="322.6" y="224.5" width="13.5" height="270.5" rx="3" fill="#1f77b4"/>
<text x="329.3" y="218.5" text-anchor="middle" font-family="Arial, sans-serif" font-size="11" font-weight="400" fill="#1f2937">1.78e+03</text>
<rect x="339.0" y="159.2" width="13.5" height="335.8" rx="3" fill="#2ca02c"/>
<text x="345.7" y="153.2" text-anchor="middle" font-family="Arial, sans-serif" font-size="11" font-weight="400" fill="#1f2937">2.27e+03</text>
<text x="397.4" y="520.0" text-anchor="middle" font-family="Arial, sans-serif" font-size="13" font-weight="700" fill="#1f2937">Plus5 FIR Out</text>
<rect x="378.5" y="222.7" width="13.5" height="272.3" rx="3" fill="#1f77b4"/>
<text x="385.2" y="216.7" text-anchor="middle" font-family="Arial, sans-serif" font-size="11" font-weight="400" fill="#1f2937">1.79e+03</text>
<rect x="394.9" y="163.7" width="13.5" height="331.3" rx="3" fill="#2ca02c"/>
<text x="401.6" y="157.7" text-anchor="middle" font-family="Arial, sans-serif" font-size="11" font-weight="400" fill="#1f2937">2.24e+03</text>
<text x="453.2" y="520.0" text-anchor="middle" font-family="Arial, sans-serif" font-size="13" font-weight="700" fill="#1f2937">Plus5 FIR+Tracker</text>
<rect x="434.3" y="222.6" width="13.5" height="272.4" rx="3" fill="#1f77b4"/>
<text x="441.1" y="216.6" text-anchor="middle" font-family="Arial, sans-serif" font-size="11" font-weight="400" fill="#1f2937">1.79e+03</text>
<rect x="450.8" y="144.9" width="13.5" height="350.1" rx="3" fill="#2ca02c"/>
<text x="457.5" y="138.9" text-anchor="middle" font-family="Arial, sans-serif" font-size="11" font-weight="400" fill="#1f2937">2.38e+03</text>
<text x="509.1" y="520.0" text-anchor="middle" font-family="Arial, sans-serif" font-size="13" font-weight="700" fill="#1f2937">Plus5 FIR+AccBuf</text>
<rect x="490.2" y="222.9" width="13.5" height="272.1" rx="3" fill="#1f77b4"/>
<text x="497.0" y="216.9" text-anchor="middle" font-family="Arial, sans-serif" font-size="11" font-weight="400" fill="#1f2937">1.79e+03</text>
<rect x="506.7" y="146.3" width="13.5" height="348.7" rx="3" fill="#2ca02c"/>
<text x="513.4" y="140.3" text-anchor="middle" font-family="Arial, sans-serif" font-size="11" font-weight="400" fill="#1f2937">2.37e+03</text>
<text x="565.0" y="520.0" text-anchor="middle" font-family="Arial, sans-serif" font-size="13" font-weight="700" fill="#1f2937">Plus5 AccBuf+MagPipe</text>
<rect x="546.1" y="213.6" width="13.5" height="281.4" rx="3" fill="#1f77b4"/>
<text x="552.8" y="207.6" text-anchor="middle" font-family="Arial, sans-serif" font-size="11" font-weight="400" fill="#1f2937">1.86e+03</text>
<rect x="562.5" y="129.6" width="13.5" height="365.4" rx="3" fill="#2ca02c"/>
<text x="569.3" y="123.6" text-anchor="middle" font-family="Arial, sans-serif" font-size="11" font-weight="400" fill="#1f2937">2.5e+03</text>
<text x="620.9" y="520.0" text-anchor="middle" font-family="Arial, sans-serif" font-size="13" font-weight="700" fill="#1f2937">Plus5 AccBuf+TrackCmp</text>
<rect x="602.0" y="222.7" width="13.5" height="272.3" rx="3" fill="#1f77b4"/>
<text x="608.7" y="216.7" text-anchor="middle" font-family="Arial, sans-serif" font-size="11" font-weight="400" fill="#1f2937">1.79e+03</text>
<rect x="618.4" y="110.0" width="13.5" height="385.0" rx="3" fill="#2ca02c"/>
<text x="625.2" y="104.0" text-anchor="middle" font-family="Arial, sans-serif" font-size="11" font-weight="400" fill="#1f2937">2.64e+03</text>
<text x="676.8" y="520.0" text-anchor="middle" font-family="Arial, sans-serif" font-size="13" font-weight="700" fill="#1f2937">Plus5 AccBuf+Fanout</text>
<rect x="657.9" y="222.6" width="13.5" height="272.4" rx="3" fill="#1f77b4"/>
<text x="664.6" y="216.6" text-anchor="middle" font-family="Arial, sans-serif" font-size="11" font-weight="400" fill="#1f2937">1.79e+03</text>
<rect x="674.3" y="143.3" width="13.5" height="351.7" rx="3" fill="#2ca02c"/>
<text x="681.0" y="137.3" text-anchor="middle" font-family="Arial, sans-serif" font-size="11" font-weight="400" fill="#1f2937">2.39e+03</text>
<text x="732.6" y="520.0" text-anchor="middle" font-family="Arial, sans-serif" font-size="13" font-weight="700" fill="#1f2937">Plus5 AccBuf+Energy64</text>
<rect x="713.7" y="260.3" width="13.5" height="234.7" rx="3" fill="#1f77b4"/>
<text x="720.5" y="254.3" text-anchor="middle" font-family="Arial, sans-serif" font-size="11" font-weight="400" fill="#1f2937">1.51e+03</text>
<rect x="730.2" y="189.7" width="13.5" height="305.3" rx="3" fill="#2ca02c"/>
<text x="736.9" y="183.7" text-anchor="middle" font-family="Arial, sans-serif" font-size="11" font-weight="400" fill="#1f2937">2.04e+03</text>
<text x="788.5" y="520.0" text-anchor="middle" font-family="Arial, sans-serif" font-size="13" font-weight="700" fill="#1f2937">Plus5 AccBuf+Energy62</text>
<rect x="769.6" y="261.6" width="13.5" height="233.4" rx="3" fill="#1f77b4"/>
<text x="776.4" y="255.6" text-anchor="middle" font-family="Arial, sans-serif" font-size="11" font-weight="400" fill="#1f2937">1.5e+03</text>
<rect x="786.1" y="191.0" width="13.5" height="304.0" rx="3" fill="#2ca02c"/>
<text x="792.8" y="185.0" text-anchor="middle" font-family="Arial, sans-serif" font-size="11" font-weight="400" fill="#1f2937">2.03e+03</text>
<text x="844.4" y="520.0" text-anchor="middle" font-family="Arial, sans-serif" font-size="13" font-weight="700" fill="#1f2937">Plus5 AccBuf+E62 FIR29</text>
<rect x="825.5" y="277.5" width="13.5" height="217.5" rx="3" fill="#1f77b4"/>
<text x="832.2" y="271.5" text-anchor="middle" font-family="Arial, sans-serif" font-size="11" font-weight="400" fill="#1f2937">1.38e+03</text>
<rect x="841.9" y="207.0" width="13.5" height="288.0" rx="3" fill="#2ca02c"/>
<text x="848.7" y="201.0" text-anchor="middle" font-family="Arial, sans-serif" font-size="11" font-weight="400" fill="#1f2937">1.91e+03</text>
<text x="900.3" y="520.0" text-anchor="middle" font-family="Arial, sans-serif" font-size="13" font-weight="700" fill="#1f2937">Plus5 E62 FIR29 FastRound</text>
<rect x="881.4" y="290.0" width="13.5" height="205.0" rx="3" fill="#1f77b4"/>
<text x="888.1" y="284.0" text-anchor="middle" font-family="Arial, sans-serif" font-size="11" font-weight="400" fill="#1f2937">1.28e+03</text>
<rect x="897.8" y="207.0" width="13.5" height="288.0" rx="3" fill="#2ca02c"/>
<text x="904.6" y="201.0" text-anchor="middle" font-family="Arial, sans-serif" font-size="11" font-weight="400" fill="#1f2937">1.91e+03</text>
<text x="956.2" y="520.0" text-anchor="middle" font-family="Arial, sans-serif" font-size="13" font-weight="700" fill="#1f2937">Plus5 FastRound+AccStart</text>
<rect x="937.3" y="282.4" width="13.5" height="212.6" rx="3" fill="#1f77b4"/>
<text x="944.0" y="276.4" text-anchor="middle" font-family="Arial, sans-serif" font-size="11" font-weight="400" fill="#1f2937">1.34e+03</text>
<rect x="953.7" y="208.6" width="13.5" height="286.4" rx="3" fill="#2ca02c"/>
<text x="960.4" y="202.6" text-anchor="middle" font-family="Arial, sans-serif" font-size="11" font-weight="400" fill="#1f2937">1.9e+03</text>
<text x="1012.1" y="520.0" text-anchor="middle" font-family="Arial, sans-serif" font-size="13" font-weight="700" fill="#1f2937">Plus5 AlwaysOn+AccStart</text>
<rect x="993.2" y="282.4" width="13.5" height="212.6" rx="3" fill="#1f77b4"/>
<text x="999.9" y="276.4" text-anchor="middle" font-family="Arial, sans-serif" font-size="11" font-weight="400" fill="#1f2937">1.34e+03</text>
<rect x="1009.6" y="217.7" width="13.5" height="277.3" rx="3" fill="#2ca02c"/>
<text x="1016.3" y="211.7" text-anchor="middle" font-family="Arial, sans-serif" font-size="11" font-weight="400" fill="#1f2937">1.83e+03</text>
<rect x="110" y="542" width="15" height="15" fill="#1f77b4"/>
<text x="132.0" y="555.0" text-anchor="start" font-family="Arial, sans-serif" font-size="13" font-weight="400" fill="#1f2937">LUTs</text>
<rect x="255" y="542" width="15" height="15" fill="#2ca02c"/>
<text x="277.0" y="555.0" text-anchor="start" font-family="Arial, sans-serif" font-size="13" font-weight="400" fill="#1f2937">FFs</text>
<text x="565.0" y="582.0" text-anchor="middle" font-family="Arial, sans-serif" font-size="15" font-weight="700" fill="#1f2937">Design variant</text>
<text x="24" y="285.0" text-anchor="middle" font-family="Arial, sans-serif" font-size="15" font-weight="700" fill="#1f2937" transform="rotate(-90 24 285.0)">Resource count</text>
</svg>
