<svg xmlns="http://www.w3.org/2000/svg" width="940" height="560" viewBox="0 0 940 560">
<rect width="100%" height="100%" fill="#ffffff"/>
<text x="470.0" y="36.0" text-anchor="middle" font-family="Arial, sans-serif" font-size="22" font-weight="700" fill="#1f2937">Fmax vs Extra FIR-to-Magnitude Boundary Registers</text>
<line x1="90" y1="470" x2="900" y2="470" stroke="#2e3440" stroke-width="1.5"/>
<line x1="90" y1="75" x2="90" y2="470" stroke="#2e3440" stroke-width="1.5"/>
<line x1="90" y1="470.0" x2="900" y2="470.0" stroke="#d7dde8" stroke-width="1"/>
<text x="78.0" y="475.0" text-anchor="end" font-family="Arial, sans-serif" font-size="12" font-weight="400" fill="#1f2937">102.5</text>
<line x1="90" y1="391.0" x2="900" y2="391.0" stroke="#d7dde8" stroke-width="1"/>
<text x="78.0" y="396.0" text-anchor="end" font-family="Arial, sans-serif" font-size="12" font-weight="400" fill="#1f2937">116.8</text>
<line x1="90" y1="312.0" x2="900" y2="312.0" stroke="#d7dde8" stroke-width="1"/>
<text x="78.0" y="317.0" text-anchor="end" font-family="Arial, sans-serif" font-size="12" font-weight="400" fill="#1f2937">131.2</text>
<line x1="90" y1="233.0" x2="900" y2="233.0" stroke="#d7dde8" stroke-width="1"/>
<text x="78.0" y="238.0" text-anchor="end" font-family="Arial, sans-serif" font-size="12" font-weight="400" fill="#1f2937">145.5</text>
<line x1="90" y1="154.0" x2="900" y2="154.0" stroke="#d7dde8" stroke-width="1"/>
<text x="78.0" y="159.0" text-anchor="end" font-family="Arial, sans-serif" font-size="12" font-weight="400" fill="#1f2937">159.8</text>
<line x1="90" y1="75.0" x2="900" y2="75.0" stroke="#d7dde8" stroke-width="1"/>
<text x="78.0" y="80.0" text-anchor="end" font-family="Arial, sans-serif" font-size="12" font-weight="400" fill="#1f2937">174.2</text>
<text x="90.0" y="494.0" text-anchor="middle" font-family="Arial, sans-serif" font-size="12" font-weight="400" fill="#1f2937">-0.4</text>
<text x="252.0" y="494.0" text-anchor="middle" font-family="Arial, sans-serif" font-size="12" font-weight="400" fill="#1f2937">0.8</text>
<text x="414.0" y="494.0" text-anchor="middle" font-family="Arial, sans-serif" font-size="12" font-weight="400" fill="#1f2937">1.9</text>
<text x="576.0" y="494.0" text-anchor="middle" font-family="Arial, sans-serif" font-size="12" font-weight="400" fill="#1f2937">3.1</text>
<text x="738.0" y="494.0" text-anchor="middle" font-family="Arial, sans-serif" font-size="12" font-weight="400" fill="#1f2937">4.2</text>
<text x="900.0" y="494.0" text-anchor="middle" font-family="Arial, sans-serif" font-size="12" font-weight="400" fill="#1f2937">5.4</text>
<text x="495.0" y="532.0" text-anchor="middle" font-family="Arial, sans-serif" font-size="15" font-weight="700" fill="#1f2937">Extra FIR-to-magnitude boundary stages</text>
<text x="24" y="272.5" text-anchor="middle" font-family="Arial, sans-serif" font-size="15" font-weight="700" fill="#1f2937" transform="rotate(-90 24 272.5)">Derived post-route Fmax (MHz)</text>
<polyline points="145.9,442.8 285.5,392.7 844.1,358.3 844.1,372.8 844.1,345.8 844.1,372.9 844.1,323.4 844.1,332.3 844.1,356.8 844.1,334.1 844.1,295.3 844.1,295.2 844.1,248.2 844.1,133.7 844.1,389.1 844.1,102.2" fill="none" stroke="#6f42c1" stroke-width="3"/>
<circle cx="145.9" cy="442.8" r="7" fill="#1f77b4" stroke="#ffffff" stroke-width="2"/>
<text x="145.9" y="428.8" text-anchor="middle" font-family="Arial, sans-serif" font-size="12" font-weight="700" fill="#1f2937">Pipelined (107.4)</text>
<circle cx="285.5" cy="392.7" r="7" fill="#2ca02c" stroke="#ffffff" stroke-width="2"/>
<text x="285.5" y="378.7" text-anchor="middle" font-family="Arial, sans-serif" font-size="12" font-weight="700" fill="#1f2937">Plus1 (116.5)</text>
<circle cx="844.1" cy="358.3" r="7" fill="#d62728" stroke="#ffffff" stroke-width="2"/>
<text x="844.1" y="344.3" text-anchor="middle" font-family="Arial, sans-serif" font-size="12" font-weight="700" fill="#1f2937">Plus5 (122.8)</text>
<circle cx="844.1" cy="372.8" r="7" fill="#9467bd" stroke="#ffffff" stroke-width="2"/>
<text x="844.1" y="358.8" text-anchor="middle" font-family="Arial, sans-serif" font-size="12" font-weight="700" fill="#1f2937">Plus5 Tracker (120.1)</text>
<circle cx="844.1" cy="345.8" r="7" fill="#ff7f0e" stroke="#ffffff" stroke-width="2"/>
<text x="844.1" y="331.8" text-anchor="middle" font-family="Arial, sans-serif" font-size="12" font-weight="700" fill="#1f2937">Plus5 FIR Out (125.0)</text>
<circle cx="844.1" cy="372.9" r="7" fill="#17becf" stroke="#ffffff" stroke-width="2"/>
<text x="844.1" y="358.9" text-anchor="middle" font-family="Arial, sans-serif" font-size="12" font-weight="700" fill="#1f2937">Plus5 FIR+Tracker (120.1)</text>
<circle cx="844.1" cy="323.4" r="7" fill="#8c564b" stroke="#ffffff" stroke-width="2"/>
<text x="844.1" y="309.4" text-anchor="middle" font-family="Arial, sans-serif" font-size="12" font-weight="700" fill="#1f2937">Plus5 FIR+AccBuf (129.1)</text>
<circle cx="844.1" cy="332.3" r="7" fill="#e377c2" stroke="#ffffff" stroke-width="2"/>
<text x="844.1" y="318.3" text-anchor="middle" font-family="Arial, sans-serif" font-size="12" font-weight="700" fill="#1f2937">Plus5 AccBuf+MagPipe (127.5)</text>
<circle cx="844.1" cy="356.8" r="7" fill="#bcbd22" stroke="#ffffff" stroke-width="2"/>
<text x="844.1" y="342.8" text-anchor="middle" font-family="Arial, sans-serif" font-size="12" font-weight="700" fill="#1f2937">Plus5 AccBuf+TrackCmp (123.0)</text>
<circle cx="844.1" cy="334.1" r="7" fill="#4c78a8" stroke="#ffffff" stroke-width="2"/>
<text x="844.1" y="320.1" text-anchor="middle" font-family="Arial, sans-serif" font-size="12" font-weight="700" fill="#1f2937">Plus5 AccBuf+Fanout (127.2)</text>
<circle cx="844.1" cy="295.3" r="7" fill="#59a14f" stroke="#ffffff" stroke-width="2"/>
<text x="844.1" y="281.3" text-anchor="middle" font-family="Arial, sans-serif" font-size="12" font-weight="700" fill="#1f2937">Plus5 AccBuf+Energy64 (134.2)</text>
<circle cx="844.1" cy="295.2" r="7" fill="#1b9e77" stroke="#ffffff" stroke-width="2"/>
<text x="844.1" y="281.2" text-anchor="middle" font-family="Arial, sans-serif" font-size="12" font-weight="700" fill="#1f2937">Plus5 AccBuf+Energy62 (134.2)</text>
<circle cx="844.1" cy="248.2" r="7" fill="#117733" stroke="#ffffff" stroke-width="2"/>
<text x="844.1" y="234.2" text-anchor="middle" font-family="Arial, sans-serif" font-size="12" font-weight="700" fill="#1f2937">Plus5 AccBuf+E62 FIR29 (142.7)</text>
<circle cx="844.1" cy="133.7" r="7" fill="#004d40" stroke="#ffffff" stroke-width="2"/>
<text x="844.1" y="119.7" text-anchor="middle" font-family="Arial, sans-serif" font-size="12" font-weight="700" fill="#1f2937">Plus5 E62 FIR29 FastRound (163.5)</text>
<circle cx="844.1" cy="389.1" r="7" fill="#a6761d" stroke="#ffffff" stroke-width="2"/>
<text x="844.1" y="375.1" text-anchor="middle" font-family="Arial, sans-serif" font-size="12" font-weight="700" fill="#1f2937">Plus5 FastRound+AccStart (117.2)</text>
<circle cx="844.1" cy="102.2" r="7" fill="#7f3c8d" stroke="#ffffff" stroke-width="2"/>
<text x="844.1" y="88.2" text-anchor="middle" font-family="Arial, sans-serif" font-size="12" font-weight="700" fill="#1f2937">Plus5 AlwaysOn+AccStart (169.2)</text>
</svg>
