<svg xmlns="http://www.w3.org/2000/svg" width="720" height="420" viewBox="0 0 720 420">
<rect width="100%" height="100%" fill="#ffffff"/>
<text x="360" y="22" text-anchor="middle" font-family="Arial" font-size="18">Reference Energy per Bin</text>
<line x1="70" y1="360" x2="690" y2="360" stroke="#222"/>
<line x1="70" y1="30" x2="70" y2="360" stroke="#222"/>
<rect x="70.0" y="339.4" width="67.0" height="20.6" fill="#0072B2"/>
<text x="103.5" y="382" text-anchor="middle" font-family="Arial" font-size="13">0</text>
<text x="103.5" y="333.4" text-anchor="middle" font-family="Arial" font-size="10">1.83e+17</text>
<rect x="149.0" y="287.6" width="67.0" height="72.4" fill="#0072B2"/>
<text x="182.5" y="382" text-anchor="middle" font-family="Arial" font-size="13">1</text>
<text x="182.5" y="281.6" text-anchor="middle" font-family="Arial" font-size="10">6.42e+17</text>
<rect x="228.0" y="141.4" width="67.0" height="218.6" fill="#0072B2"/>
<text x="261.5" y="382" text-anchor="middle" font-family="Arial" font-size="13">2</text>
<text x="261.5" y="135.4" text-anchor="middle" font-family="Arial" font-size="10">1.94e+18</text>
<rect x="307.0" y="30.0" width="67.0" height="330.0" fill="#D55E00"/>
<text x="340.5" y="382" text-anchor="middle" font-family="Arial" font-size="13">3</text>
<text x="340.5" y="24.0" text-anchor="middle" font-family="Arial" font-size="10">2.93e+18</text>
<rect x="386.0" y="141.7" width="67.0" height="218.3" fill="#0072B2"/>
<text x="419.5" y="382" text-anchor="middle" font-family="Arial" font-size="13">4</text>
<text x="419.5" y="135.7" text-anchor="middle" font-family="Arial" font-size="10">1.94e+18</text>
<rect x="465.0" y="292.6" width="67.0" height="67.4" fill="#0072B2"/>
<text x="498.5" y="382" text-anchor="middle" font-family="Arial" font-size="13">5</text>
<text x="498.5" y="286.6" text-anchor="middle" font-family="Arial" font-size="10">5.98e+17</text>
<rect x="544.0" y="344.6" width="67.0" height="15.4" fill="#0072B2"/>
<text x="577.5" y="382" text-anchor="middle" font-family="Arial" font-size="13">6</text>
<text x="577.5" y="338.6" text-anchor="middle" font-family="Arial" font-size="10">1.37e+17</text>
<rect x="623.0" y="353.5" width="67.0" height="6.5" fill="#0072B2"/>
<text x="656.5" y="382" text-anchor="middle" font-family="Arial" font-size="13">7</text>
<text x="656.5" y="347.5" text-anchor="middle" font-family="Arial" font-size="10">5.74e+16</text>
<text x="360.0" y="410" text-anchor="middle" font-family="Arial" font-size="13">Frequency bin</text>
<text transform="translate(18 230) rotate(-90)" text-anchor="middle" font-family="Arial" font-size="13">Accumulated magnitude squared</text>
</svg>
